<?xml version="1.0" encoding="utf-8" standalone="no"?>
<!DOCTYPE svg PUBLIC "-//W3C//DTD SVG 1.1//EN"
  "http://www.w3.org/Graphics/SVG/1.1/DTD/svg11.dtd">
<!-- Created with matplotlib (https://matplotlib.org/) -->
<svg height="216pt" version="1.1" viewBox="0 0 720 216" width="720pt" xmlns="http://www.w3.org/2000/svg" xmlns:xlink="http://www.w3.org/1999/xlink">
 <metadata>
  <rdf:RDF xmlns:cc="http://creativecommons.org/ns#" xmlns:dc="http://purl.org/dc/elements/1.1/" xmlns:rdf="http://www.w3.org/1999/02/22-rdf-syntax-ns#">
   <cc:Work>
    <dc:type rdf:resource="http://purl.org/dc/dcmitype/StillImage"/>
    <dc:date>2023-10-23T20:04:29.021808</dc:date>
    <dc:format>image/svg+xml</dc:format>
    <dc:creator>
     <cc:Agent>
      <dc:title>Matplotlib v3.3.4, https://matplotlib.org/</dc:title>
     </cc:Agent>
    </dc:creator>
   </cc:Work>
  </rdf:RDF>
 </metadata>
 <defs>
  <style type="text/css">*{stroke-linecap:butt;stroke-linejoin:round;}</style>
 </defs>
 <g id="figure_1">
  <g id="patch_1">
   <path d="M 0 216 
L 720 216 
L 720 0 
L 0 0 
z
" style="fill:none;"/>
  </g>
  <g id="axes_1">
   <g id="patch_2">
    <path d="M 90 146.88 
L 648 146.88 
L 648 25.92 
L 90 25.92 
z
" style="fill:#ffffff;"/>
   </g>
   <g id="matplotlib.axis_1">
    <g id="xtick_1">
     <g id="line2d_1">
      <path clip-path="url(#p75d2d488bc)" d="M 99.62069 146.88 
L 99.62069 25.92 
" style="fill:none;stroke:#b0b0b0;stroke-linecap:square;stroke-width:0.8;"/>
     </g>
     <g id="line2d_2">
      <defs>
       <path d="M 0 0 
L 0 3.5 
" id="mc365cf7979" style="stroke:#000000;stroke-width:0.8;"/>
      </defs>
      <g>
       <use style="stroke:#000000;stroke-width:0.8;" x="99.62069" xlink:href="#mc365cf7979" y="146.88"/>
      </g>
     </g>
     <g id="text_1">
      <!-- 1-PFA-0-1 -->
      <g transform="translate(102.380065 201.275313)rotate(-90)scale(0.1 -0.1)">
       <defs>
        <path d="M 12.40625 8.296875 
L 28.515625 8.296875 
L 28.515625 63.921875 
L 10.984375 60.40625 
L 10.984375 69.390625 
L 28.421875 72.90625 
L 38.28125 72.90625 
L 38.28125 8.296875 
L 54.390625 8.296875 
L 54.390625 0 
L 12.40625 0 
z
" id="DejaVuSans-49"/>
        <path d="M 4.890625 31.390625 
L 31.203125 31.390625 
L 31.203125 23.390625 
L 4.890625 23.390625 
z
" id="DejaVuSans-45"/>
        <path d="M 19.671875 64.796875 
L 19.671875 37.40625 
L 32.078125 37.40625 
Q 38.96875 37.40625 42.71875 40.96875 
Q 46.484375 44.53125 46.484375 51.125 
Q 46.484375 57.671875 42.71875 61.234375 
Q 38.96875 64.796875 32.078125 64.796875 
z
M 9.8125 72.90625 
L 32.078125 72.90625 
Q 44.34375 72.90625 50.609375 67.359375 
Q 56.890625 61.8125 56.890625 51.125 
Q 56.890625 40.328125 50.609375 34.8125 
Q 44.34375 29.296875 32.078125 29.296875 
L 19.671875 29.296875 
L 19.671875 0 
L 9.8125 0 
z
" id="DejaVuSans-80"/>
        <path d="M 9.8125 72.90625 
L 51.703125 72.90625 
L 51.703125 64.59375 
L 19.671875 64.59375 
L 19.671875 43.109375 
L 48.578125 43.109375 
L 48.578125 34.8125 
L 19.671875 34.8125 
L 19.671875 0 
L 9.8125 0 
z
" id="DejaVuSans-70"/>
        <path d="M 34.1875 63.1875 
L 20.796875 26.90625 
L 47.609375 26.90625 
z
M 28.609375 72.90625 
L 39.796875 72.90625 
L 67.578125 0 
L 57.328125 0 
L 50.6875 18.703125 
L 17.828125 18.703125 
L 11.1875 0 
L 0.78125 0 
z
" id="DejaVuSans-65"/>
        <path d="M 31.78125 66.40625 
Q 24.171875 66.40625 20.328125 58.90625 
Q 16.5 51.421875 16.5 36.375 
Q 16.5 21.390625 20.328125 13.890625 
Q 24.171875 6.390625 31.78125 6.390625 
Q 39.453125 6.390625 43.28125 13.890625 
Q 47.125 21.390625 47.125 36.375 
Q 47.125 51.421875 43.28125 58.90625 
Q 39.453125 66.40625 31.78125 66.40625 
z
M 31.78125 74.21875 
Q 44.046875 74.21875 50.515625 64.515625 
Q 56.984375 54.828125 56.984375 36.375 
Q 56.984375 17.96875 50.515625 8.265625 
Q 44.046875 -1.421875 31.78125 -1.421875 
Q 19.53125 -1.421875 13.0625 8.265625 
Q 6.59375 17.96875 6.59375 36.375 
Q 6.59375 54.828125 13.0625 64.515625 
Q 19.53125 74.21875 31.78125 74.21875 
z
" id="DejaVuSans-48"/>
       </defs>
       <use xlink:href="#DejaVuSans-49"/>
       <use x="63.623047" xlink:href="#DejaVuSans-45"/>
       <use x="99.707031" xlink:href="#DejaVuSans-80"/>
       <use x="160.009766" xlink:href="#DejaVuSans-70"/>
       <use x="208.404297" xlink:href="#DejaVuSans-65"/>
       <use x="274.5625" xlink:href="#DejaVuSans-45"/>
       <use x="310.646484" xlink:href="#DejaVuSans-48"/>
       <use x="374.269531" xlink:href="#DejaVuSans-45"/>
       <use x="410.353516" xlink:href="#DejaVuSans-49"/>
      </g>
     </g>
    </g>
    <g id="xtick_2">
     <g id="line2d_3">
      <path clip-path="url(#p75d2d488bc)" d="M 118.862069 146.88 
L 118.862069 25.92 
" style="fill:none;stroke:#b0b0b0;stroke-linecap:square;stroke-width:0.8;"/>
     </g>
     <g id="line2d_4">
      <g>
       <use style="stroke:#000000;stroke-width:0.8;" x="118.862069" xlink:href="#mc365cf7979" y="146.88"/>
      </g>
     </g>
     <g id="text_2">
      <!-- 1-PFA-1-1 -->
      <g transform="translate(121.621444 201.275313)rotate(-90)scale(0.1 -0.1)">
       <use xlink:href="#DejaVuSans-49"/>
       <use x="63.623047" xlink:href="#DejaVuSans-45"/>
       <use x="99.707031" xlink:href="#DejaVuSans-80"/>
       <use x="160.009766" xlink:href="#DejaVuSans-70"/>
       <use x="208.404297" xlink:href="#DejaVuSans-65"/>
       <use x="274.5625" xlink:href="#DejaVuSans-45"/>
       <use x="310.646484" xlink:href="#DejaVuSans-49"/>
       <use x="374.269531" xlink:href="#DejaVuSans-45"/>
       <use x="410.353516" xlink:href="#DejaVuSans-49"/>
      </g>
     </g>
    </g>
    <g id="xtick_3">
     <g id="line2d_5">
      <path clip-path="url(#p75d2d488bc)" d="M 138.103448 146.88 
L 138.103448 25.92 
" style="fill:none;stroke:#b0b0b0;stroke-linecap:square;stroke-width:0.8;"/>
     </g>
     <g id="line2d_6">
      <g>
       <use style="stroke:#000000;stroke-width:0.8;" x="138.103448" xlink:href="#mc365cf7979" y="146.88"/>
      </g>
     </g>
     <g id="text_3">
      <!-- 1-PFD-1-1 -->
      <g transform="translate(140.862823 203.272188)rotate(-90)scale(0.1 -0.1)">
       <defs>
        <path d="M 19.671875 64.796875 
L 19.671875 8.109375 
L 31.59375 8.109375 
Q 46.6875 8.109375 53.6875 14.9375 
Q 60.6875 21.78125 60.6875 36.53125 
Q 60.6875 51.171875 53.6875 57.984375 
Q 46.6875 64.796875 31.59375 64.796875 
z
M 9.8125 72.90625 
L 30.078125 72.90625 
Q 51.265625 72.90625 61.171875 64.09375 
Q 71.09375 55.28125 71.09375 36.53125 
Q 71.09375 17.671875 61.125 8.828125 
Q 51.171875 0 30.078125 0 
L 9.8125 0 
z
" id="DejaVuSans-68"/>
       </defs>
       <use xlink:href="#DejaVuSans-49"/>
       <use x="63.623047" xlink:href="#DejaVuSans-45"/>
       <use x="99.707031" xlink:href="#DejaVuSans-80"/>
       <use x="160.009766" xlink:href="#DejaVuSans-70"/>
       <use x="217.529297" xlink:href="#DejaVuSans-68"/>
       <use x="294.53125" xlink:href="#DejaVuSans-45"/>
       <use x="330.615234" xlink:href="#DejaVuSans-49"/>
       <use x="394.238281" xlink:href="#DejaVuSans-45"/>
       <use x="430.322266" xlink:href="#DejaVuSans-49"/>
      </g>
     </g>
    </g>
    <g id="xtick_4">
     <g id="line2d_7">
      <path clip-path="url(#p75d2d488bc)" d="M 157.344828 146.88 
L 157.344828 25.92 
" style="fill:none;stroke:#b0b0b0;stroke-linecap:square;stroke-width:0.8;"/>
     </g>
     <g id="line2d_8">
      <g>
       <use style="stroke:#000000;stroke-width:0.8;" x="157.344828" xlink:href="#mc365cf7979" y="146.88"/>
      </g>
     </g>
     <g id="text_4">
      <!-- 1-PID-1-1 -->
      <g transform="translate(160.104203 200.470625)rotate(-90)scale(0.1 -0.1)">
       <defs>
        <path d="M 9.8125 72.90625 
L 19.671875 72.90625 
L 19.671875 0 
L 9.8125 0 
z
" id="DejaVuSans-73"/>
       </defs>
       <use xlink:href="#DejaVuSans-49"/>
       <use x="63.623047" xlink:href="#DejaVuSans-45"/>
       <use x="99.707031" xlink:href="#DejaVuSans-80"/>
       <use x="160.009766" xlink:href="#DejaVuSans-73"/>
       <use x="189.501953" xlink:href="#DejaVuSans-68"/>
       <use x="266.503906" xlink:href="#DejaVuSans-45"/>
       <use x="302.587891" xlink:href="#DejaVuSans-49"/>
       <use x="366.210938" xlink:href="#DejaVuSans-45"/>
       <use x="402.294922" xlink:href="#DejaVuSans-49"/>
      </g>
     </g>
    </g>
    <g id="xtick_5">
     <g id="line2d_9">
      <path clip-path="url(#p75d2d488bc)" d="M 176.586207 146.88 
L 176.586207 25.92 
" style="fill:none;stroke:#b0b0b0;stroke-linecap:square;stroke-width:0.8;"/>
     </g>
     <g id="line2d_10">
      <g>
       <use style="stroke:#000000;stroke-width:0.8;" x="176.586207" xlink:href="#mc365cf7979" y="146.88"/>
      </g>
     </g>
     <g id="text_5">
      <!-- 1-PFA-2-1 -->
      <g transform="translate(179.345582 201.275313)rotate(-90)scale(0.1 -0.1)">
       <defs>
        <path d="M 19.1875 8.296875 
L 53.609375 8.296875 
L 53.609375 0 
L 7.328125 0 
L 7.328125 8.296875 
Q 12.9375 14.109375 22.625 23.890625 
Q 32.328125 33.6875 34.8125 36.53125 
Q 39.546875 41.84375 41.421875 45.53125 
Q 43.3125 49.21875 43.3125 52.78125 
Q 43.3125 58.59375 39.234375 62.25 
Q 35.15625 65.921875 28.609375 65.921875 
Q 23.96875 65.921875 18.8125 64.3125 
Q 13.671875 62.703125 7.8125 59.421875 
L 7.8125 69.390625 
Q 13.765625 71.78125 18.9375 73 
Q 24.125 74.21875 28.421875 74.21875 
Q 39.75 74.21875 46.484375 68.546875 
Q 53.21875 62.890625 53.21875 53.421875 
Q 53.21875 48.921875 51.53125 44.890625 
Q 49.859375 40.875 45.40625 35.40625 
Q 44.1875 33.984375 37.640625 27.21875 
Q 31.109375 20.453125 19.1875 8.296875 
z
" id="DejaVuSans-50"/>
       </defs>
       <use xlink:href="#DejaVuSans-49"/>
       <use x="63.623047" xlink:href="#DejaVuSans-45"/>
       <use x="99.707031" xlink:href="#DejaVuSans-80"/>
       <use x="160.009766" xlink:href="#DejaVuSans-70"/>
       <use x="208.404297" xlink:href="#DejaVuSans-65"/>
       <use x="274.5625" xlink:href="#DejaVuSans-45"/>
       <use x="310.646484" xlink:href="#DejaVuSans-50"/>
       <use x="374.269531" xlink:href="#DejaVuSans-45"/>
       <use x="410.353516" xlink:href="#DejaVuSans-49"/>
      </g>
     </g>
    </g>
    <g id="xtick_6">
     <g id="line2d_11">
      <path clip-path="url(#p75d2d488bc)" d="M 195.827586 146.88 
L 195.827586 25.92 
" style="fill:none;stroke:#b0b0b0;stroke-linecap:square;stroke-width:0.8;"/>
     </g>
     <g id="line2d_12">
      <g>
       <use style="stroke:#000000;stroke-width:0.8;" x="195.827586" xlink:href="#mc365cf7979" y="146.88"/>
      </g>
     </g>
     <g id="text_6">
      <!-- 1-PFD-2-1 -->
      <g transform="translate(198.586961 203.272188)rotate(-90)scale(0.1 -0.1)">
       <use xlink:href="#DejaVuSans-49"/>
       <use x="63.623047" xlink:href="#DejaVuSans-45"/>
       <use x="99.707031" xlink:href="#DejaVuSans-80"/>
       <use x="160.009766" xlink:href="#DejaVuSans-70"/>
       <use x="217.529297" xlink:href="#DejaVuSans-68"/>
       <use x="294.53125" xlink:href="#DejaVuSans-45"/>
       <use x="330.615234" xlink:href="#DejaVuSans-50"/>
       <use x="394.238281" xlink:href="#DejaVuSans-45"/>
       <use x="430.322266" xlink:href="#DejaVuSans-49"/>
      </g>
     </g>
    </g>
    <g id="xtick_7">
     <g id="line2d_13">
      <path clip-path="url(#p75d2d488bc)" d="M 215.068966 146.88 
L 215.068966 25.92 
" style="fill:none;stroke:#b0b0b0;stroke-linecap:square;stroke-width:0.8;"/>
     </g>
     <g id="line2d_14">
      <g>
       <use style="stroke:#000000;stroke-width:0.8;" x="215.068966" xlink:href="#mc365cf7979" y="146.88"/>
      </g>
     </g>
     <g id="text_7">
      <!-- 1-PID-2-1 -->
      <g transform="translate(217.828341 200.470625)rotate(-90)scale(0.1 -0.1)">
       <use xlink:href="#DejaVuSans-49"/>
       <use x="63.623047" xlink:href="#DejaVuSans-45"/>
       <use x="99.707031" xlink:href="#DejaVuSans-80"/>
       <use x="160.009766" xlink:href="#DejaVuSans-73"/>
       <use x="189.501953" xlink:href="#DejaVuSans-68"/>
       <use x="266.503906" xlink:href="#DejaVuSans-45"/>
       <use x="302.587891" xlink:href="#DejaVuSans-50"/>
       <use x="366.210938" xlink:href="#DejaVuSans-45"/>
       <use x="402.294922" xlink:href="#DejaVuSans-49"/>
      </g>
     </g>
    </g>
    <g id="xtick_8">
     <g id="line2d_15">
      <path clip-path="url(#p75d2d488bc)" d="M 234.310345 146.88 
L 234.310345 25.92 
" style="fill:none;stroke:#b0b0b0;stroke-linecap:square;stroke-width:0.8;"/>
     </g>
     <g id="line2d_16">
      <g>
       <use style="stroke:#000000;stroke-width:0.8;" x="234.310345" xlink:href="#mc365cf7979" y="146.88"/>
      </g>
     </g>
     <g id="text_8">
      <!-- 1-PFA-3-1 -->
      <g transform="translate(237.06972 201.275313)rotate(-90)scale(0.1 -0.1)">
       <defs>
        <path d="M 40.578125 39.3125 
Q 47.65625 37.796875 51.625 33 
Q 55.609375 28.21875 55.609375 21.1875 
Q 55.609375 10.40625 48.1875 4.484375 
Q 40.765625 -1.421875 27.09375 -1.421875 
Q 22.515625 -1.421875 17.65625 -0.515625 
Q 12.796875 0.390625 7.625 2.203125 
L 7.625 11.71875 
Q 11.71875 9.328125 16.59375 8.109375 
Q 21.484375 6.890625 26.8125 6.890625 
Q 36.078125 6.890625 40.9375 10.546875 
Q 45.796875 14.203125 45.796875 21.1875 
Q 45.796875 27.640625 41.28125 31.265625 
Q 36.765625 34.90625 28.71875 34.90625 
L 20.21875 34.90625 
L 20.21875 43.015625 
L 29.109375 43.015625 
Q 36.375 43.015625 40.234375 45.921875 
Q 44.09375 48.828125 44.09375 54.296875 
Q 44.09375 59.90625 40.109375 62.90625 
Q 36.140625 65.921875 28.71875 65.921875 
Q 24.65625 65.921875 20.015625 65.03125 
Q 15.375 64.15625 9.8125 62.3125 
L 9.8125 71.09375 
Q 15.4375 72.65625 20.34375 73.4375 
Q 25.25 74.21875 29.59375 74.21875 
Q 40.828125 74.21875 47.359375 69.109375 
Q 53.90625 64.015625 53.90625 55.328125 
Q 53.90625 49.265625 50.4375 45.09375 
Q 46.96875 40.921875 40.578125 39.3125 
z
" id="DejaVuSans-51"/>
       </defs>
       <use xlink:href="#DejaVuSans-49"/>
       <use x="63.623047" xlink:href="#DejaVuSans-45"/>
       <use x="99.707031" xlink:href="#DejaVuSans-80"/>
       <use x="160.009766" xlink:href="#DejaVuSans-70"/>
       <use x="208.404297" xlink:href="#DejaVuSans-65"/>
       <use x="274.5625" xlink:href="#DejaVuSans-45"/>
       <use x="310.646484" xlink:href="#DejaVuSans-51"/>
       <use x="374.269531" xlink:href="#DejaVuSans-45"/>
       <use x="410.353516" xlink:href="#DejaVuSans-49"/>
      </g>
     </g>
    </g>
    <g id="xtick_9">
     <g id="line2d_17">
      <path clip-path="url(#p75d2d488bc)" d="M 253.551724 146.88 
L 253.551724 25.92 
" style="fill:none;stroke:#b0b0b0;stroke-linecap:square;stroke-width:0.8;"/>
     </g>
     <g id="line2d_18">
      <g>
       <use style="stroke:#000000;stroke-width:0.8;" x="253.551724" xlink:href="#mc365cf7979" y="146.88"/>
      </g>
     </g>
     <g id="text_9">
      <!-- 1-PFD-3-1 -->
      <g transform="translate(256.311099 203.272188)rotate(-90)scale(0.1 -0.1)">
       <use xlink:href="#DejaVuSans-49"/>
       <use x="63.623047" xlink:href="#DejaVuSans-45"/>
       <use x="99.707031" xlink:href="#DejaVuSans-80"/>
       <use x="160.009766" xlink:href="#DejaVuSans-70"/>
       <use x="217.529297" xlink:href="#DejaVuSans-68"/>
       <use x="294.53125" xlink:href="#DejaVuSans-45"/>
       <use x="330.615234" xlink:href="#DejaVuSans-51"/>
       <use x="394.238281" xlink:href="#DejaVuSans-45"/>
       <use x="430.322266" xlink:href="#DejaVuSans-49"/>
      </g>
     </g>
    </g>
    <g id="xtick_10">
     <g id="line2d_19">
      <path clip-path="url(#p75d2d488bc)" d="M 272.793103 146.88 
L 272.793103 25.92 
" style="fill:none;stroke:#b0b0b0;stroke-linecap:square;stroke-width:0.8;"/>
     </g>
     <g id="line2d_20">
      <g>
       <use style="stroke:#000000;stroke-width:0.8;" x="272.793103" xlink:href="#mc365cf7979" y="146.88"/>
      </g>
     </g>
     <g id="text_10">
      <!-- 1-PID-3-1 -->
      <g transform="translate(275.552478 200.470625)rotate(-90)scale(0.1 -0.1)">
       <use xlink:href="#DejaVuSans-49"/>
       <use x="63.623047" xlink:href="#DejaVuSans-45"/>
       <use x="99.707031" xlink:href="#DejaVuSans-80"/>
       <use x="160.009766" xlink:href="#DejaVuSans-73"/>
       <use x="189.501953" xlink:href="#DejaVuSans-68"/>
       <use x="266.503906" xlink:href="#DejaVuSans-45"/>
       <use x="302.587891" xlink:href="#DejaVuSans-51"/>
       <use x="366.210938" xlink:href="#DejaVuSans-45"/>
       <use x="402.294922" xlink:href="#DejaVuSans-49"/>
      </g>
     </g>
    </g>
    <g id="xtick_11">
     <g id="line2d_21">
      <path clip-path="url(#p75d2d488bc)" d="M 292.034483 146.88 
L 292.034483 25.92 
" style="fill:none;stroke:#b0b0b0;stroke-linecap:square;stroke-width:0.8;"/>
     </g>
     <g id="line2d_22">
      <g>
       <use style="stroke:#000000;stroke-width:0.8;" x="292.034483" xlink:href="#mc365cf7979" y="146.88"/>
      </g>
     </g>
     <g id="text_11">
      <!-- 1-PFA-4-1 -->
      <g transform="translate(294.793858 201.275313)rotate(-90)scale(0.1 -0.1)">
       <defs>
        <path d="M 37.796875 64.3125 
L 12.890625 25.390625 
L 37.796875 25.390625 
z
M 35.203125 72.90625 
L 47.609375 72.90625 
L 47.609375 25.390625 
L 58.015625 25.390625 
L 58.015625 17.1875 
L 47.609375 17.1875 
L 47.609375 0 
L 37.796875 0 
L 37.796875 17.1875 
L 4.890625 17.1875 
L 4.890625 26.703125 
z
" id="DejaVuSans-52"/>
       </defs>
       <use xlink:href="#DejaVuSans-49"/>
       <use x="63.623047" xlink:href="#DejaVuSans-45"/>
       <use x="99.707031" xlink:href="#DejaVuSans-80"/>
       <use x="160.009766" xlink:href="#DejaVuSans-70"/>
       <use x="208.404297" xlink:href="#DejaVuSans-65"/>
       <use x="274.5625" xlink:href="#DejaVuSans-45"/>
       <use x="310.646484" xlink:href="#DejaVuSans-52"/>
       <use x="374.269531" xlink:href="#DejaVuSans-45"/>
       <use x="410.353516" xlink:href="#DejaVuSans-49"/>
      </g>
     </g>
    </g>
    <g id="xtick_12">
     <g id="line2d_23">
      <path clip-path="url(#p75d2d488bc)" d="M 311.275862 146.88 
L 311.275862 25.92 
" style="fill:none;stroke:#b0b0b0;stroke-linecap:square;stroke-width:0.8;"/>
     </g>
     <g id="line2d_24">
      <g>
       <use style="stroke:#000000;stroke-width:0.8;" x="311.275862" xlink:href="#mc365cf7979" y="146.88"/>
      </g>
     </g>
     <g id="text_12">
      <!-- 1-PFD-4-1 -->
      <g transform="translate(314.035237 203.272188)rotate(-90)scale(0.1 -0.1)">
       <use xlink:href="#DejaVuSans-49"/>
       <use x="63.623047" xlink:href="#DejaVuSans-45"/>
       <use x="99.707031" xlink:href="#DejaVuSans-80"/>
       <use x="160.009766" xlink:href="#DejaVuSans-70"/>
       <use x="217.529297" xlink:href="#DejaVuSans-68"/>
       <use x="294.53125" xlink:href="#DejaVuSans-45"/>
       <use x="330.615234" xlink:href="#DejaVuSans-52"/>
       <use x="394.238281" xlink:href="#DejaVuSans-45"/>
       <use x="430.322266" xlink:href="#DejaVuSans-49"/>
      </g>
     </g>
    </g>
    <g id="xtick_13">
     <g id="line2d_25">
      <path clip-path="url(#p75d2d488bc)" d="M 330.517241 146.88 
L 330.517241 25.92 
" style="fill:none;stroke:#b0b0b0;stroke-linecap:square;stroke-width:0.8;"/>
     </g>
     <g id="line2d_26">
      <g>
       <use style="stroke:#000000;stroke-width:0.8;" x="330.517241" xlink:href="#mc365cf7979" y="146.88"/>
      </g>
     </g>
     <g id="text_13">
      <!-- 1-PID-4-1 -->
      <g transform="translate(333.276616 200.470625)rotate(-90)scale(0.1 -0.1)">
       <use xlink:href="#DejaVuSans-49"/>
       <use x="63.623047" xlink:href="#DejaVuSans-45"/>
       <use x="99.707031" xlink:href="#DejaVuSans-80"/>
       <use x="160.009766" xlink:href="#DejaVuSans-73"/>
       <use x="189.501953" xlink:href="#DejaVuSans-68"/>
       <use x="266.503906" xlink:href="#DejaVuSans-45"/>
       <use x="302.587891" xlink:href="#DejaVuSans-52"/>
       <use x="366.210938" xlink:href="#DejaVuSans-45"/>
       <use x="402.294922" xlink:href="#DejaVuSans-49"/>
      </g>
     </g>
    </g>
    <g id="xtick_14">
     <g id="line2d_27">
      <path clip-path="url(#p75d2d488bc)" d="M 349.758621 146.88 
L 349.758621 25.92 
" style="fill:none;stroke:#b0b0b0;stroke-linecap:square;stroke-width:0.8;"/>
     </g>
     <g id="line2d_28">
      <g>
       <use style="stroke:#000000;stroke-width:0.8;" x="349.758621" xlink:href="#mc365cf7979" y="146.88"/>
      </g>
     </g>
     <g id="text_14">
      <!-- 1-PFA-5-1 -->
      <g transform="translate(352.517996 201.275313)rotate(-90)scale(0.1 -0.1)">
       <defs>
        <path d="M 10.796875 72.90625 
L 49.515625 72.90625 
L 49.515625 64.59375 
L 19.828125 64.59375 
L 19.828125 46.734375 
Q 21.96875 47.46875 24.109375 47.828125 
Q 26.265625 48.1875 28.421875 48.1875 
Q 40.625 48.1875 47.75 41.5 
Q 54.890625 34.8125 54.890625 23.390625 
Q 54.890625 11.625 47.5625 5.09375 
Q 40.234375 -1.421875 26.90625 -1.421875 
Q 22.3125 -1.421875 17.546875 -0.640625 
Q 12.796875 0.140625 7.71875 1.703125 
L 7.71875 11.625 
Q 12.109375 9.234375 16.796875 8.0625 
Q 21.484375 6.890625 26.703125 6.890625 
Q 35.15625 6.890625 40.078125 11.328125 
Q 45.015625 15.765625 45.015625 23.390625 
Q 45.015625 31 40.078125 35.4375 
Q 35.15625 39.890625 26.703125 39.890625 
Q 22.75 39.890625 18.8125 39.015625 
Q 14.890625 38.140625 10.796875 36.28125 
z
" id="DejaVuSans-53"/>
       </defs>
       <use xlink:href="#DejaVuSans-49"/>
       <use x="63.623047" xlink:href="#DejaVuSans-45"/>
       <use x="99.707031" xlink:href="#DejaVuSans-80"/>
       <use x="160.009766" xlink:href="#DejaVuSans-70"/>
       <use x="208.404297" xlink:href="#DejaVuSans-65"/>
       <use x="274.5625" xlink:href="#DejaVuSans-45"/>
       <use x="310.646484" xlink:href="#DejaVuSans-53"/>
       <use x="374.269531" xlink:href="#DejaVuSans-45"/>
       <use x="410.353516" xlink:href="#DejaVuSans-49"/>
      </g>
     </g>
    </g>
    <g id="xtick_15">
     <g id="line2d_29">
      <path clip-path="url(#p75d2d488bc)" d="M 369 146.88 
L 369 25.92 
" style="fill:none;stroke:#b0b0b0;stroke-linecap:square;stroke-width:0.8;"/>
     </g>
     <g id="line2d_30">
      <g>
       <use style="stroke:#000000;stroke-width:0.8;" x="369" xlink:href="#mc365cf7979" y="146.88"/>
      </g>
     </g>
     <g id="text_15">
      <!-- 1-PFD-5-1 -->
      <g transform="translate(371.759375 203.272188)rotate(-90)scale(0.1 -0.1)">
       <use xlink:href="#DejaVuSans-49"/>
       <use x="63.623047" xlink:href="#DejaVuSans-45"/>
       <use x="99.707031" xlink:href="#DejaVuSans-80"/>
       <use x="160.009766" xlink:href="#DejaVuSans-70"/>
       <use x="217.529297" xlink:href="#DejaVuSans-68"/>
       <use x="294.53125" xlink:href="#DejaVuSans-45"/>
       <use x="330.615234" xlink:href="#DejaVuSans-53"/>
       <use x="394.238281" xlink:href="#DejaVuSans-45"/>
       <use x="430.322266" xlink:href="#DejaVuSans-49"/>
      </g>
     </g>
    </g>
    <g id="xtick_16">
     <g id="line2d_31">
      <path clip-path="url(#p75d2d488bc)" d="M 388.241379 146.88 
L 388.241379 25.92 
" style="fill:none;stroke:#b0b0b0;stroke-linecap:square;stroke-width:0.8;"/>
     </g>
     <g id="line2d_32">
      <g>
       <use style="stroke:#000000;stroke-width:0.8;" x="388.241379" xlink:href="#mc365cf7979" y="146.88"/>
      </g>
     </g>
     <g id="text_16">
      <!-- 1-PID-5-1 -->
      <g transform="translate(391.000754 200.470625)rotate(-90)scale(0.1 -0.1)">
       <use xlink:href="#DejaVuSans-49"/>
       <use x="63.623047" xlink:href="#DejaVuSans-45"/>
       <use x="99.707031" xlink:href="#DejaVuSans-80"/>
       <use x="160.009766" xlink:href="#DejaVuSans-73"/>
       <use x="189.501953" xlink:href="#DejaVuSans-68"/>
       <use x="266.503906" xlink:href="#DejaVuSans-45"/>
       <use x="302.587891" xlink:href="#DejaVuSans-53"/>
       <use x="366.210938" xlink:href="#DejaVuSans-45"/>
       <use x="402.294922" xlink:href="#DejaVuSans-49"/>
      </g>
     </g>
    </g>
    <g id="xtick_17">
     <g id="line2d_33">
      <path clip-path="url(#p75d2d488bc)" d="M 407.482759 146.88 
L 407.482759 25.92 
" style="fill:none;stroke:#b0b0b0;stroke-linecap:square;stroke-width:0.8;"/>
     </g>
     <g id="line2d_34">
      <g>
       <use style="stroke:#000000;stroke-width:0.8;" x="407.482759" xlink:href="#mc365cf7979" y="146.88"/>
      </g>
     </g>
     <g id="text_17">
      <!-- 1-PFA-6-1 -->
      <g transform="translate(410.242134 201.275313)rotate(-90)scale(0.1 -0.1)">
       <defs>
        <path d="M 33.015625 40.375 
Q 26.375 40.375 22.484375 35.828125 
Q 18.609375 31.296875 18.609375 23.390625 
Q 18.609375 15.53125 22.484375 10.953125 
Q 26.375 6.390625 33.015625 6.390625 
Q 39.65625 6.390625 43.53125 10.953125 
Q 47.40625 15.53125 47.40625 23.390625 
Q 47.40625 31.296875 43.53125 35.828125 
Q 39.65625 40.375 33.015625 40.375 
z
M 52.59375 71.296875 
L 52.59375 62.3125 
Q 48.875 64.0625 45.09375 64.984375 
Q 41.3125 65.921875 37.59375 65.921875 
Q 27.828125 65.921875 22.671875 59.328125 
Q 17.53125 52.734375 16.796875 39.40625 
Q 19.671875 43.65625 24.015625 45.921875 
Q 28.375 48.1875 33.59375 48.1875 
Q 44.578125 48.1875 50.953125 41.515625 
Q 57.328125 34.859375 57.328125 23.390625 
Q 57.328125 12.15625 50.6875 5.359375 
Q 44.046875 -1.421875 33.015625 -1.421875 
Q 20.359375 -1.421875 13.671875 8.265625 
Q 6.984375 17.96875 6.984375 36.375 
Q 6.984375 53.65625 15.1875 63.9375 
Q 23.390625 74.21875 37.203125 74.21875 
Q 40.921875 74.21875 44.703125 73.484375 
Q 48.484375 72.75 52.59375 71.296875 
z
" id="DejaVuSans-54"/>
       </defs>
       <use xlink:href="#DejaVuSans-49"/>
       <use x="63.623047" xlink:href="#DejaVuSans-45"/>
       <use x="99.707031" xlink:href="#DejaVuSans-80"/>
       <use x="160.009766" xlink:href="#DejaVuSans-70"/>
       <use x="208.404297" xlink:href="#DejaVuSans-65"/>
       <use x="274.5625" xlink:href="#DejaVuSans-45"/>
       <use x="310.646484" xlink:href="#DejaVuSans-54"/>
       <use x="374.269531" xlink:href="#DejaVuSans-45"/>
       <use x="410.353516" xlink:href="#DejaVuSans-49"/>
      </g>
     </g>
    </g>
    <g id="xtick_18">
     <g id="line2d_35">
      <path clip-path="url(#p75d2d488bc)" d="M 426.724138 146.88 
L 426.724138 25.92 
" style="fill:none;stroke:#b0b0b0;stroke-linecap:square;stroke-width:0.8;"/>
     </g>
     <g id="line2d_36">
      <g>
       <use style="stroke:#000000;stroke-width:0.8;" x="426.724138" xlink:href="#mc365cf7979" y="146.88"/>
      </g>
     </g>
     <g id="text_18">
      <!-- 1-PFD-6-1 -->
      <g transform="translate(429.483513 203.272188)rotate(-90)scale(0.1 -0.1)">
       <use xlink:href="#DejaVuSans-49"/>
       <use x="63.623047" xlink:href="#DejaVuSans-45"/>
       <use x="99.707031" xlink:href="#DejaVuSans-80"/>
       <use x="160.009766" xlink:href="#DejaVuSans-70"/>
       <use x="217.529297" xlink:href="#DejaVuSans-68"/>
       <use x="294.53125" xlink:href="#DejaVuSans-45"/>
       <use x="330.615234" xlink:href="#DejaVuSans-54"/>
       <use x="394.238281" xlink:href="#DejaVuSans-45"/>
       <use x="430.322266" xlink:href="#DejaVuSans-49"/>
      </g>
     </g>
    </g>
    <g id="xtick_19">
     <g id="line2d_37">
      <path clip-path="url(#p75d2d488bc)" d="M 445.965517 146.88 
L 445.965517 25.92 
" style="fill:none;stroke:#b0b0b0;stroke-linecap:square;stroke-width:0.8;"/>
     </g>
     <g id="line2d_38">
      <g>
       <use style="stroke:#000000;stroke-width:0.8;" x="445.965517" xlink:href="#mc365cf7979" y="146.88"/>
      </g>
     </g>
     <g id="text_19">
      <!-- 1-PID-6-1 -->
      <g transform="translate(448.724892 200.470625)rotate(-90)scale(0.1 -0.1)">
       <use xlink:href="#DejaVuSans-49"/>
       <use x="63.623047" xlink:href="#DejaVuSans-45"/>
       <use x="99.707031" xlink:href="#DejaVuSans-80"/>
       <use x="160.009766" xlink:href="#DejaVuSans-73"/>
       <use x="189.501953" xlink:href="#DejaVuSans-68"/>
       <use x="266.503906" xlink:href="#DejaVuSans-45"/>
       <use x="302.587891" xlink:href="#DejaVuSans-54"/>
       <use x="366.210938" xlink:href="#DejaVuSans-45"/>
       <use x="402.294922" xlink:href="#DejaVuSans-49"/>
      </g>
     </g>
    </g>
    <g id="xtick_20">
     <g id="line2d_39">
      <path clip-path="url(#p75d2d488bc)" d="M 465.206897 146.88 
L 465.206897 25.92 
" style="fill:none;stroke:#b0b0b0;stroke-linecap:square;stroke-width:0.8;"/>
     </g>
     <g id="line2d_40">
      <g>
       <use style="stroke:#000000;stroke-width:0.8;" x="465.206897" xlink:href="#mc365cf7979" y="146.88"/>
      </g>
     </g>
     <g id="text_20">
      <!-- 1-PFA-7-1 -->
      <g transform="translate(467.966272 201.275313)rotate(-90)scale(0.1 -0.1)">
       <defs>
        <path d="M 8.203125 72.90625 
L 55.078125 72.90625 
L 55.078125 68.703125 
L 28.609375 0 
L 18.3125 0 
L 43.21875 64.59375 
L 8.203125 64.59375 
z
" id="DejaVuSans-55"/>
       </defs>
       <use xlink:href="#DejaVuSans-49"/>
       <use x="63.623047" xlink:href="#DejaVuSans-45"/>
       <use x="99.707031" xlink:href="#DejaVuSans-80"/>
       <use x="160.009766" xlink:href="#DejaVuSans-70"/>
       <use x="208.404297" xlink:href="#DejaVuSans-65"/>
       <use x="274.5625" xlink:href="#DejaVuSans-45"/>
       <use x="310.646484" xlink:href="#DejaVuSans-55"/>
       <use x="374.269531" xlink:href="#DejaVuSans-45"/>
       <use x="410.353516" xlink:href="#DejaVuSans-49"/>
      </g>
     </g>
    </g>
    <g id="xtick_21">
     <g id="line2d_41">
      <path clip-path="url(#p75d2d488bc)" d="M 484.448276 146.88 
L 484.448276 25.92 
" style="fill:none;stroke:#b0b0b0;stroke-linecap:square;stroke-width:0.8;"/>
     </g>
     <g id="line2d_42">
      <g>
       <use style="stroke:#000000;stroke-width:0.8;" x="484.448276" xlink:href="#mc365cf7979" y="146.88"/>
      </g>
     </g>
     <g id="text_21">
      <!-- 1-PFD-7-1 -->
      <g transform="translate(487.207651 203.272188)rotate(-90)scale(0.1 -0.1)">
       <use xlink:href="#DejaVuSans-49"/>
       <use x="63.623047" xlink:href="#DejaVuSans-45"/>
       <use x="99.707031" xlink:href="#DejaVuSans-80"/>
       <use x="160.009766" xlink:href="#DejaVuSans-70"/>
       <use x="217.529297" xlink:href="#DejaVuSans-68"/>
       <use x="294.53125" xlink:href="#DejaVuSans-45"/>
       <use x="330.615234" xlink:href="#DejaVuSans-55"/>
       <use x="394.238281" xlink:href="#DejaVuSans-45"/>
       <use x="430.322266" xlink:href="#DejaVuSans-49"/>
      </g>
     </g>
    </g>
    <g id="xtick_22">
     <g id="line2d_43">
      <path clip-path="url(#p75d2d488bc)" d="M 503.689655 146.88 
L 503.689655 25.92 
" style="fill:none;stroke:#b0b0b0;stroke-linecap:square;stroke-width:0.8;"/>
     </g>
     <g id="line2d_44">
      <g>
       <use style="stroke:#000000;stroke-width:0.8;" x="503.689655" xlink:href="#mc365cf7979" y="146.88"/>
      </g>
     </g>
     <g id="text_22">
      <!-- 1-PID-7-1 -->
      <g transform="translate(506.44903 200.470625)rotate(-90)scale(0.1 -0.1)">
       <use xlink:href="#DejaVuSans-49"/>
       <use x="63.623047" xlink:href="#DejaVuSans-45"/>
       <use x="99.707031" xlink:href="#DejaVuSans-80"/>
       <use x="160.009766" xlink:href="#DejaVuSans-73"/>
       <use x="189.501953" xlink:href="#DejaVuSans-68"/>
       <use x="266.503906" xlink:href="#DejaVuSans-45"/>
       <use x="302.587891" xlink:href="#DejaVuSans-55"/>
       <use x="366.210938" xlink:href="#DejaVuSans-45"/>
       <use x="402.294922" xlink:href="#DejaVuSans-49"/>
      </g>
     </g>
    </g>
    <g id="xtick_23">
     <g id="line2d_45">
      <path clip-path="url(#p75d2d488bc)" d="M 522.931034 146.88 
L 522.931034 25.92 
" style="fill:none;stroke:#b0b0b0;stroke-linecap:square;stroke-width:0.8;"/>
     </g>
     <g id="line2d_46">
      <g>
       <use style="stroke:#000000;stroke-width:0.8;" x="522.931034" xlink:href="#mc365cf7979" y="146.88"/>
      </g>
     </g>
     <g id="text_23">
      <!-- 1-PFA-8-1 -->
      <g transform="translate(525.690409 201.275313)rotate(-90)scale(0.1 -0.1)">
       <defs>
        <path d="M 31.78125 34.625 
Q 24.75 34.625 20.71875 30.859375 
Q 16.703125 27.09375 16.703125 20.515625 
Q 16.703125 13.921875 20.71875 10.15625 
Q 24.75 6.390625 31.78125 6.390625 
Q 38.8125 6.390625 42.859375 10.171875 
Q 46.921875 13.96875 46.921875 20.515625 
Q 46.921875 27.09375 42.890625 30.859375 
Q 38.875 34.625 31.78125 34.625 
z
M 21.921875 38.8125 
Q 15.578125 40.375 12.03125 44.71875 
Q 8.5 49.078125 8.5 55.328125 
Q 8.5 64.0625 14.71875 69.140625 
Q 20.953125 74.21875 31.78125 74.21875 
Q 42.671875 74.21875 48.875 69.140625 
Q 55.078125 64.0625 55.078125 55.328125 
Q 55.078125 49.078125 51.53125 44.71875 
Q 48 40.375 41.703125 38.8125 
Q 48.828125 37.15625 52.796875 32.3125 
Q 56.78125 27.484375 56.78125 20.515625 
Q 56.78125 9.90625 50.3125 4.234375 
Q 43.84375 -1.421875 31.78125 -1.421875 
Q 19.734375 -1.421875 13.25 4.234375 
Q 6.78125 9.90625 6.78125 20.515625 
Q 6.78125 27.484375 10.78125 32.3125 
Q 14.796875 37.15625 21.921875 38.8125 
z
M 18.3125 54.390625 
Q 18.3125 48.734375 21.84375 45.5625 
Q 25.390625 42.390625 31.78125 42.390625 
Q 38.140625 42.390625 41.71875 45.5625 
Q 45.3125 48.734375 45.3125 54.390625 
Q 45.3125 60.0625 41.71875 63.234375 
Q 38.140625 66.40625 31.78125 66.40625 
Q 25.390625 66.40625 21.84375 63.234375 
Q 18.3125 60.0625 18.3125 54.390625 
z
" id="DejaVuSans-56"/>
       </defs>
       <use xlink:href="#DejaVuSans-49"/>
       <use x="63.623047" xlink:href="#DejaVuSans-45"/>
       <use x="99.707031" xlink:href="#DejaVuSans-80"/>
       <use x="160.009766" xlink:href="#DejaVuSans-70"/>
       <use x="208.404297" xlink:href="#DejaVuSans-65"/>
       <use x="274.5625" xlink:href="#DejaVuSans-45"/>
       <use x="310.646484" xlink:href="#DejaVuSans-56"/>
       <use x="374.269531" xlink:href="#DejaVuSans-45"/>
       <use x="410.353516" xlink:href="#DejaVuSans-49"/>
      </g>
     </g>
    </g>
    <g id="xtick_24">
     <g id="line2d_47">
      <path clip-path="url(#p75d2d488bc)" d="M 542.172414 146.88 
L 542.172414 25.92 
" style="fill:none;stroke:#b0b0b0;stroke-linecap:square;stroke-width:0.8;"/>
     </g>
     <g id="line2d_48">
      <g>
       <use style="stroke:#000000;stroke-width:0.8;" x="542.172414" xlink:href="#mc365cf7979" y="146.88"/>
      </g>
     </g>
     <g id="text_24">
      <!-- 1-PFD-8-1 -->
      <g transform="translate(544.931789 203.272188)rotate(-90)scale(0.1 -0.1)">
       <use xlink:href="#DejaVuSans-49"/>
       <use x="63.623047" xlink:href="#DejaVuSans-45"/>
       <use x="99.707031" xlink:href="#DejaVuSans-80"/>
       <use x="160.009766" xlink:href="#DejaVuSans-70"/>
       <use x="217.529297" xlink:href="#DejaVuSans-68"/>
       <use x="294.53125" xlink:href="#DejaVuSans-45"/>
       <use x="330.615234" xlink:href="#DejaVuSans-56"/>
       <use x="394.238281" xlink:href="#DejaVuSans-45"/>
       <use x="430.322266" xlink:href="#DejaVuSans-49"/>
      </g>
     </g>
    </g>
    <g id="xtick_25">
     <g id="line2d_49">
      <path clip-path="url(#p75d2d488bc)" d="M 561.413793 146.88 
L 561.413793 25.92 
" style="fill:none;stroke:#b0b0b0;stroke-linecap:square;stroke-width:0.8;"/>
     </g>
     <g id="line2d_50">
      <g>
       <use style="stroke:#000000;stroke-width:0.8;" x="561.413793" xlink:href="#mc365cf7979" y="146.88"/>
      </g>
     </g>
     <g id="text_25">
      <!-- 1-PID-8-1 -->
      <g transform="translate(564.173168 200.470625)rotate(-90)scale(0.1 -0.1)">
       <use xlink:href="#DejaVuSans-49"/>
       <use x="63.623047" xlink:href="#DejaVuSans-45"/>
       <use x="99.707031" xlink:href="#DejaVuSans-80"/>
       <use x="160.009766" xlink:href="#DejaVuSans-73"/>
       <use x="189.501953" xlink:href="#DejaVuSans-68"/>
       <use x="266.503906" xlink:href="#DejaVuSans-45"/>
       <use x="302.587891" xlink:href="#DejaVuSans-56"/>
       <use x="366.210938" xlink:href="#DejaVuSans-45"/>
       <use x="402.294922" xlink:href="#DejaVuSans-49"/>
      </g>
     </g>
    </g>
    <g id="xtick_26">
     <g id="line2d_51">
      <path clip-path="url(#p75d2d488bc)" d="M 580.655172 146.88 
L 580.655172 25.92 
" style="fill:none;stroke:#b0b0b0;stroke-linecap:square;stroke-width:0.8;"/>
     </g>
     <g id="line2d_52">
      <g>
       <use style="stroke:#000000;stroke-width:0.8;" x="580.655172" xlink:href="#mc365cf7979" y="146.88"/>
      </g>
     </g>
     <g id="text_26">
      <!-- 1-PFA-9-1 -->
      <g transform="translate(583.414547 201.275313)rotate(-90)scale(0.1 -0.1)">
       <defs>
        <path d="M 10.984375 1.515625 
L 10.984375 10.5 
Q 14.703125 8.734375 18.5 7.8125 
Q 22.3125 6.890625 25.984375 6.890625 
Q 35.75 6.890625 40.890625 13.453125 
Q 46.046875 20.015625 46.78125 33.40625 
Q 43.953125 29.203125 39.59375 26.953125 
Q 35.25 24.703125 29.984375 24.703125 
Q 19.046875 24.703125 12.671875 31.3125 
Q 6.296875 37.9375 6.296875 49.421875 
Q 6.296875 60.640625 12.9375 67.421875 
Q 19.578125 74.21875 30.609375 74.21875 
Q 43.265625 74.21875 49.921875 64.515625 
Q 56.59375 54.828125 56.59375 36.375 
Q 56.59375 19.140625 48.40625 8.859375 
Q 40.234375 -1.421875 26.421875 -1.421875 
Q 22.703125 -1.421875 18.890625 -0.6875 
Q 15.09375 0.046875 10.984375 1.515625 
z
M 30.609375 32.421875 
Q 37.25 32.421875 41.125 36.953125 
Q 45.015625 41.5 45.015625 49.421875 
Q 45.015625 57.28125 41.125 61.84375 
Q 37.25 66.40625 30.609375 66.40625 
Q 23.96875 66.40625 20.09375 61.84375 
Q 16.21875 57.28125 16.21875 49.421875 
Q 16.21875 41.5 20.09375 36.953125 
Q 23.96875 32.421875 30.609375 32.421875 
z
" id="DejaVuSans-57"/>
       </defs>
       <use xlink:href="#DejaVuSans-49"/>
       <use x="63.623047" xlink:href="#DejaVuSans-45"/>
       <use x="99.707031" xlink:href="#DejaVuSans-80"/>
       <use x="160.009766" xlink:href="#DejaVuSans-70"/>
       <use x="208.404297" xlink:href="#DejaVuSans-65"/>
       <use x="274.5625" xlink:href="#DejaVuSans-45"/>
       <use x="310.646484" xlink:href="#DejaVuSans-57"/>
       <use x="374.269531" xlink:href="#DejaVuSans-45"/>
       <use x="410.353516" xlink:href="#DejaVuSans-49"/>
      </g>
     </g>
    </g>
    <g id="xtick_27">
     <g id="line2d_53">
      <path clip-path="url(#p75d2d488bc)" d="M 599.896552 146.88 
L 599.896552 25.92 
" style="fill:none;stroke:#b0b0b0;stroke-linecap:square;stroke-width:0.8;"/>
     </g>
     <g id="line2d_54">
      <g>
       <use style="stroke:#000000;stroke-width:0.8;" x="599.896552" xlink:href="#mc365cf7979" y="146.88"/>
      </g>
     </g>
     <g id="text_27">
      <!-- 1-PFD-9-1 -->
      <g transform="translate(602.655927 203.272188)rotate(-90)scale(0.1 -0.1)">
       <use xlink:href="#DejaVuSans-49"/>
       <use x="63.623047" xlink:href="#DejaVuSans-45"/>
       <use x="99.707031" xlink:href="#DejaVuSans-80"/>
       <use x="160.009766" xlink:href="#DejaVuSans-70"/>
       <use x="217.529297" xlink:href="#DejaVuSans-68"/>
       <use x="294.53125" xlink:href="#DejaVuSans-45"/>
       <use x="330.615234" xlink:href="#DejaVuSans-57"/>
       <use x="394.238281" xlink:href="#DejaVuSans-45"/>
       <use x="430.322266" xlink:href="#DejaVuSans-49"/>
      </g>
     </g>
    </g>
    <g id="xtick_28">
     <g id="line2d_55">
      <path clip-path="url(#p75d2d488bc)" d="M 619.137931 146.88 
L 619.137931 25.92 
" style="fill:none;stroke:#b0b0b0;stroke-linecap:square;stroke-width:0.8;"/>
     </g>
     <g id="line2d_56">
      <g>
       <use style="stroke:#000000;stroke-width:0.8;" x="619.137931" xlink:href="#mc365cf7979" y="146.88"/>
      </g>
     </g>
     <g id="text_28">
      <!-- 1-PID-9-1 -->
      <g transform="translate(621.897306 200.470625)rotate(-90)scale(0.1 -0.1)">
       <use xlink:href="#DejaVuSans-49"/>
       <use x="63.623047" xlink:href="#DejaVuSans-45"/>
       <use x="99.707031" xlink:href="#DejaVuSans-80"/>
       <use x="160.009766" xlink:href="#DejaVuSans-73"/>
       <use x="189.501953" xlink:href="#DejaVuSans-68"/>
       <use x="266.503906" xlink:href="#DejaVuSans-45"/>
       <use x="302.587891" xlink:href="#DejaVuSans-57"/>
       <use x="366.210938" xlink:href="#DejaVuSans-45"/>
       <use x="402.294922" xlink:href="#DejaVuSans-49"/>
      </g>
     </g>
    </g>
    <g id="xtick_29">
     <g id="line2d_57">
      <path clip-path="url(#p75d2d488bc)" d="M 638.37931 146.88 
L 638.37931 25.92 
" style="fill:none;stroke:#b0b0b0;stroke-linecap:square;stroke-width:0.8;"/>
     </g>
     <g id="line2d_58">
      <g>
       <use style="stroke:#000000;stroke-width:0.8;" x="638.37931" xlink:href="#mc365cf7979" y="146.88"/>
      </g>
     </g>
     <g id="text_29">
      <!-- 1-PRD-1-1 -->
      <g transform="translate(641.138685 204.469063)rotate(-90)scale(0.1 -0.1)">
       <defs>
        <path d="M 44.390625 34.1875 
Q 47.5625 33.109375 50.5625 29.59375 
Q 53.5625 26.078125 56.59375 19.921875 
L 66.609375 0 
L 56 0 
L 46.6875 18.703125 
Q 43.0625 26.03125 39.671875 28.421875 
Q 36.28125 30.8125 30.421875 30.8125 
L 19.671875 30.8125 
L 19.671875 0 
L 9.8125 0 
L 9.8125 72.90625 
L 32.078125 72.90625 
Q 44.578125 72.90625 50.734375 67.671875 
Q 56.890625 62.453125 56.890625 51.90625 
Q 56.890625 45.015625 53.6875 40.46875 
Q 50.484375 35.9375 44.390625 34.1875 
z
M 19.671875 64.796875 
L 19.671875 38.921875 
L 32.078125 38.921875 
Q 39.203125 38.921875 42.84375 42.21875 
Q 46.484375 45.515625 46.484375 51.90625 
Q 46.484375 58.296875 42.84375 61.546875 
Q 39.203125 64.796875 32.078125 64.796875 
z
" id="DejaVuSans-82"/>
       </defs>
       <use xlink:href="#DejaVuSans-49"/>
       <use x="63.623047" xlink:href="#DejaVuSans-45"/>
       <use x="99.707031" xlink:href="#DejaVuSans-80"/>
       <use x="160.009766" xlink:href="#DejaVuSans-82"/>
       <use x="229.492188" xlink:href="#DejaVuSans-68"/>
       <use x="306.494141" xlink:href="#DejaVuSans-45"/>
       <use x="342.578125" xlink:href="#DejaVuSans-49"/>
       <use x="406.201172" xlink:href="#DejaVuSans-45"/>
       <use x="442.285156" xlink:href="#DejaVuSans-49"/>
      </g>
     </g>
    </g>
    <g id="text_30">
     <!-- EDP -->
     <g transform="translate(358.975781 216.0675)scale(0.1 -0.1)">
      <defs>
       <path d="M 9.8125 72.90625 
L 55.90625 72.90625 
L 55.90625 64.59375 
L 19.671875 64.59375 
L 19.671875 43.015625 
L 54.390625 43.015625 
L 54.390625 34.71875 
L 19.671875 34.71875 
L 19.671875 8.296875 
L 56.78125 8.296875 
L 56.78125 0 
L 9.8125 0 
z
" id="DejaVuSans-69"/>
      </defs>
      <use xlink:href="#DejaVuSans-69"/>
      <use x="63.183594" xlink:href="#DejaVuSans-68"/>
      <use x="140.185547" xlink:href="#DejaVuSans-80"/>
     </g>
    </g>
   </g>
   <g id="matplotlib.axis_2">
    <g id="ytick_1">
     <g id="line2d_59">
      <path clip-path="url(#p75d2d488bc)" d="M 90 146.88 
L 648 146.88 
" style="fill:none;stroke:#b0b0b0;stroke-linecap:square;stroke-width:0.8;"/>
     </g>
     <g id="line2d_60">
      <defs>
       <path d="M 0 0 
L -3.5 0 
" id="m63ea0946f3" style="stroke:#000000;stroke-width:0.8;"/>
      </defs>
      <g>
       <use style="stroke:#000000;stroke-width:0.8;" x="90" xlink:href="#m63ea0946f3" y="146.88"/>
      </g>
     </g>
     <g id="text_31">
      <!-- 0.00 -->
      <g transform="translate(60.734375 150.679219)scale(0.1 -0.1)">
       <defs>
        <path d="M 10.6875 12.40625 
L 21 12.40625 
L 21 0 
L 10.6875 0 
z
" id="DejaVuSans-46"/>
       </defs>
       <use xlink:href="#DejaVuSans-48"/>
       <use x="63.623047" xlink:href="#DejaVuSans-46"/>
       <use x="95.410156" xlink:href="#DejaVuSans-48"/>
       <use x="159.033203" xlink:href="#DejaVuSans-48"/>
      </g>
     </g>
    </g>
    <g id="ytick_2">
     <g id="line2d_61">
      <path clip-path="url(#p75d2d488bc)" d="M 90 116.64 
L 648 116.64 
" style="fill:none;stroke:#b0b0b0;stroke-linecap:square;stroke-width:0.8;"/>
     </g>
     <g id="line2d_62">
      <g>
       <use style="stroke:#000000;stroke-width:0.8;" x="90" xlink:href="#m63ea0946f3" y="116.64"/>
      </g>
     </g>
     <g id="text_32">
      <!-- 0.05 -->
      <g transform="translate(60.734375 120.439219)scale(0.1 -0.1)">
       <use xlink:href="#DejaVuSans-48"/>
       <use x="63.623047" xlink:href="#DejaVuSans-46"/>
       <use x="95.410156" xlink:href="#DejaVuSans-48"/>
       <use x="159.033203" xlink:href="#DejaVuSans-53"/>
      </g>
     </g>
    </g>
    <g id="ytick_3">
     <g id="line2d_63">
      <path clip-path="url(#p75d2d488bc)" d="M 90 86.4 
L 648 86.4 
" style="fill:none;stroke:#b0b0b0;stroke-linecap:square;stroke-width:0.8;"/>
     </g>
     <g id="line2d_64">
      <g>
       <use style="stroke:#000000;stroke-width:0.8;" x="90" xlink:href="#m63ea0946f3" y="86.4"/>
      </g>
     </g>
     <g id="text_33">
      <!-- 0.10 -->
      <g transform="translate(60.734375 90.199219)scale(0.1 -0.1)">
       <use xlink:href="#DejaVuSans-48"/>
       <use x="63.623047" xlink:href="#DejaVuSans-46"/>
       <use x="95.410156" xlink:href="#DejaVuSans-49"/>
       <use x="159.033203" xlink:href="#DejaVuSans-48"/>
      </g>
     </g>
    </g>
    <g id="ytick_4">
     <g id="line2d_65">
      <path clip-path="url(#p75d2d488bc)" d="M 90 56.16 
L 648 56.16 
" style="fill:none;stroke:#b0b0b0;stroke-linecap:square;stroke-width:0.8;"/>
     </g>
     <g id="line2d_66">
      <g>
       <use style="stroke:#000000;stroke-width:0.8;" x="90" xlink:href="#m63ea0946f3" y="56.16"/>
      </g>
     </g>
     <g id="text_34">
      <!-- 0.15 -->
      <g transform="translate(60.734375 59.959219)scale(0.1 -0.1)">
       <use xlink:href="#DejaVuSans-48"/>
       <use x="63.623047" xlink:href="#DejaVuSans-46"/>
       <use x="95.410156" xlink:href="#DejaVuSans-49"/>
       <use x="159.033203" xlink:href="#DejaVuSans-53"/>
      </g>
     </g>
    </g>
    <g id="ytick_5">
     <g id="line2d_67">
      <path clip-path="url(#p75d2d488bc)" d="M 90 25.92 
L 648 25.92 
" style="fill:none;stroke:#b0b0b0;stroke-linecap:square;stroke-width:0.8;"/>
     </g>
     <g id="line2d_68">
      <g>
       <use style="stroke:#000000;stroke-width:0.8;" x="90" xlink:href="#m63ea0946f3" y="25.92"/>
      </g>
     </g>
     <g id="text_35">
      <!-- 0.20 -->
      <g transform="translate(60.734375 29.719219)scale(0.1 -0.1)">
       <use xlink:href="#DejaVuSans-48"/>
       <use x="63.623047" xlink:href="#DejaVuSans-46"/>
       <use x="95.410156" xlink:href="#DejaVuSans-50"/>
       <use x="159.033203" xlink:href="#DejaVuSans-48"/>
      </g>
     </g>
    </g>
    <g id="text_36">
     <!-- estimation error -->
     <g transform="translate(54.654687 126.633594)rotate(-90)scale(0.1 -0.1)">
      <defs>
       <path d="M 56.203125 29.59375 
L 56.203125 25.203125 
L 14.890625 25.203125 
Q 15.484375 15.921875 20.484375 11.0625 
Q 25.484375 6.203125 34.421875 6.203125 
Q 39.59375 6.203125 44.453125 7.46875 
Q 49.3125 8.734375 54.109375 11.28125 
L 54.109375 2.78125 
Q 49.265625 0.734375 44.1875 -0.34375 
Q 39.109375 -1.421875 33.890625 -1.421875 
Q 20.796875 -1.421875 13.15625 6.1875 
Q 5.515625 13.8125 5.515625 26.8125 
Q 5.515625 40.234375 12.765625 48.109375 
Q 20.015625 56 32.328125 56 
Q 43.359375 56 49.78125 48.890625 
Q 56.203125 41.796875 56.203125 29.59375 
z
M 47.21875 32.234375 
Q 47.125 39.59375 43.09375 43.984375 
Q 39.0625 48.390625 32.421875 48.390625 
Q 24.90625 48.390625 20.390625 44.140625 
Q 15.875 39.890625 15.1875 32.171875 
z
" id="DejaVuSans-101"/>
       <path d="M 44.28125 53.078125 
L 44.28125 44.578125 
Q 40.484375 46.53125 36.375 47.5 
Q 32.28125 48.484375 27.875 48.484375 
Q 21.1875 48.484375 17.84375 46.4375 
Q 14.5 44.390625 14.5 40.28125 
Q 14.5 37.15625 16.890625 35.375 
Q 19.28125 33.59375 26.515625 31.984375 
L 29.59375 31.296875 
Q 39.15625 29.25 43.1875 25.515625 
Q 47.21875 21.78125 47.21875 15.09375 
Q 47.21875 7.46875 41.1875 3.015625 
Q 35.15625 -1.421875 24.609375 -1.421875 
Q 20.21875 -1.421875 15.453125 -0.5625 
Q 10.6875 0.296875 5.421875 2 
L 5.421875 11.28125 
Q 10.40625 8.6875 15.234375 7.390625 
Q 20.0625 6.109375 24.8125 6.109375 
Q 31.15625 6.109375 34.5625 8.28125 
Q 37.984375 10.453125 37.984375 14.40625 
Q 37.984375 18.0625 35.515625 20.015625 
Q 33.0625 21.96875 24.703125 23.78125 
L 21.578125 24.515625 
Q 13.234375 26.265625 9.515625 29.90625 
Q 5.8125 33.546875 5.8125 39.890625 
Q 5.8125 47.609375 11.28125 51.796875 
Q 16.75 56 26.8125 56 
Q 31.78125 56 36.171875 55.265625 
Q 40.578125 54.546875 44.28125 53.078125 
z
" id="DejaVuSans-115"/>
       <path d="M 18.3125 70.21875 
L 18.3125 54.6875 
L 36.8125 54.6875 
L 36.8125 47.703125 
L 18.3125 47.703125 
L 18.3125 18.015625 
Q 18.3125 11.328125 20.140625 9.421875 
Q 21.96875 7.515625 27.59375 7.515625 
L 36.8125 7.515625 
L 36.8125 0 
L 27.59375 0 
Q 17.1875 0 13.234375 3.875 
Q 9.28125 7.765625 9.28125 18.015625 
L 9.28125 47.703125 
L 2.6875 47.703125 
L 2.6875 54.6875 
L 9.28125 54.6875 
L 9.28125 70.21875 
z
" id="DejaVuSans-116"/>
       <path d="M 9.421875 54.6875 
L 18.40625 54.6875 
L 18.40625 0 
L 9.421875 0 
z
M 9.421875 75.984375 
L 18.40625 75.984375 
L 18.40625 64.59375 
L 9.421875 64.59375 
z
" id="DejaVuSans-105"/>
       <path d="M 52 44.1875 
Q 55.375 50.25 60.0625 53.125 
Q 64.75 56 71.09375 56 
Q 79.640625 56 84.28125 50.015625 
Q 88.921875 44.046875 88.921875 33.015625 
L 88.921875 0 
L 79.890625 0 
L 79.890625 32.71875 
Q 79.890625 40.578125 77.09375 44.375 
Q 74.3125 48.1875 68.609375 48.1875 
Q 61.625 48.1875 57.5625 43.546875 
Q 53.515625 38.921875 53.515625 30.90625 
L 53.515625 0 
L 44.484375 0 
L 44.484375 32.71875 
Q 44.484375 40.625 41.703125 44.40625 
Q 38.921875 48.1875 33.109375 48.1875 
Q 26.21875 48.1875 22.15625 43.53125 
Q 18.109375 38.875 18.109375 30.90625 
L 18.109375 0 
L 9.078125 0 
L 9.078125 54.6875 
L 18.109375 54.6875 
L 18.109375 46.1875 
Q 21.1875 51.21875 25.484375 53.609375 
Q 29.78125 56 35.6875 56 
Q 41.65625 56 45.828125 52.96875 
Q 50 49.953125 52 44.1875 
z
" id="DejaVuSans-109"/>
       <path d="M 34.28125 27.484375 
Q 23.390625 27.484375 19.1875 25 
Q 14.984375 22.515625 14.984375 16.5 
Q 14.984375 11.71875 18.140625 8.90625 
Q 21.296875 6.109375 26.703125 6.109375 
Q 34.1875 6.109375 38.703125 11.40625 
Q 43.21875 16.703125 43.21875 25.484375 
L 43.21875 27.484375 
z
M 52.203125 31.203125 
L 52.203125 0 
L 43.21875 0 
L 43.21875 8.296875 
Q 40.140625 3.328125 35.546875 0.953125 
Q 30.953125 -1.421875 24.3125 -1.421875 
Q 15.921875 -1.421875 10.953125 3.296875 
Q 6 8.015625 6 15.921875 
Q 6 25.140625 12.171875 29.828125 
Q 18.359375 34.515625 30.609375 34.515625 
L 43.21875 34.515625 
L 43.21875 35.40625 
Q 43.21875 41.609375 39.140625 45 
Q 35.0625 48.390625 27.6875 48.390625 
Q 23 48.390625 18.546875 47.265625 
Q 14.109375 46.140625 10.015625 43.890625 
L 10.015625 52.203125 
Q 14.9375 54.109375 19.578125 55.046875 
Q 24.21875 56 28.609375 56 
Q 40.484375 56 46.34375 49.84375 
Q 52.203125 43.703125 52.203125 31.203125 
z
" id="DejaVuSans-97"/>
       <path d="M 30.609375 48.390625 
Q 23.390625 48.390625 19.1875 42.75 
Q 14.984375 37.109375 14.984375 27.296875 
Q 14.984375 17.484375 19.15625 11.84375 
Q 23.34375 6.203125 30.609375 6.203125 
Q 37.796875 6.203125 41.984375 11.859375 
Q 46.1875 17.53125 46.1875 27.296875 
Q 46.1875 37.015625 41.984375 42.703125 
Q 37.796875 48.390625 30.609375 48.390625 
z
M 30.609375 56 
Q 42.328125 56 49.015625 48.375 
Q 55.71875 40.765625 55.71875 27.296875 
Q 55.71875 13.875 49.015625 6.21875 
Q 42.328125 -1.421875 30.609375 -1.421875 
Q 18.84375 -1.421875 12.171875 6.21875 
Q 5.515625 13.875 5.515625 27.296875 
Q 5.515625 40.765625 12.171875 48.375 
Q 18.84375 56 30.609375 56 
z
" id="DejaVuSans-111"/>
       <path d="M 54.890625 33.015625 
L 54.890625 0 
L 45.90625 0 
L 45.90625 32.71875 
Q 45.90625 40.484375 42.875 44.328125 
Q 39.84375 48.1875 33.796875 48.1875 
Q 26.515625 48.1875 22.3125 43.546875 
Q 18.109375 38.921875 18.109375 30.90625 
L 18.109375 0 
L 9.078125 0 
L 9.078125 54.6875 
L 18.109375 54.6875 
L 18.109375 46.1875 
Q 21.34375 51.125 25.703125 53.5625 
Q 30.078125 56 35.796875 56 
Q 45.21875 56 50.046875 50.171875 
Q 54.890625 44.34375 54.890625 33.015625 
z
" id="DejaVuSans-110"/>
       <path id="DejaVuSans-32"/>
       <path d="M 41.109375 46.296875 
Q 39.59375 47.171875 37.8125 47.578125 
Q 36.03125 48 33.890625 48 
Q 26.265625 48 22.1875 43.046875 
Q 18.109375 38.09375 18.109375 28.8125 
L 18.109375 0 
L 9.078125 0 
L 9.078125 54.6875 
L 18.109375 54.6875 
L 18.109375 46.1875 
Q 20.953125 51.171875 25.484375 53.578125 
Q 30.03125 56 36.53125 56 
Q 37.453125 56 38.578125 55.875 
Q 39.703125 55.765625 41.0625 55.515625 
z
" id="DejaVuSans-114"/>
      </defs>
      <use xlink:href="#DejaVuSans-101"/>
      <use x="61.523438" xlink:href="#DejaVuSans-115"/>
      <use x="113.623047" xlink:href="#DejaVuSans-116"/>
      <use x="152.832031" xlink:href="#DejaVuSans-105"/>
      <use x="180.615234" xlink:href="#DejaVuSans-109"/>
      <use x="278.027344" xlink:href="#DejaVuSans-97"/>
      <use x="339.306641" xlink:href="#DejaVuSans-116"/>
      <use x="378.515625" xlink:href="#DejaVuSans-105"/>
      <use x="406.298828" xlink:href="#DejaVuSans-111"/>
      <use x="467.480469" xlink:href="#DejaVuSans-110"/>
      <use x="530.859375" xlink:href="#DejaVuSans-32"/>
      <use x="562.646484" xlink:href="#DejaVuSans-101"/>
      <use x="624.169922" xlink:href="#DejaVuSans-114"/>
      <use x="663.533203" xlink:href="#DejaVuSans-114"/>
      <use x="702.396484" xlink:href="#DejaVuSans-111"/>
      <use x="763.578125" xlink:href="#DejaVuSans-114"/>
     </g>
    </g>
   </g>
   <g id="patch_3">
    <path clip-path="url(#p75d2d488bc)" d="M 94.810345 146.88 
L 98.017241 146.88 
L 98.017241 141.487605 
L 94.810345 141.487605 
z
" style="fill:#1f77b4;"/>
   </g>
   <g id="patch_4">
    <path clip-path="url(#p75d2d488bc)" d="M 114.051724 146.88 
L 117.258621 146.88 
L 117.258621 127.669392 
L 114.051724 127.669392 
z
" style="fill:#1f77b4;"/>
   </g>
   <g id="patch_5">
    <path clip-path="url(#p75d2d488bc)" d="M 133.293103 146.88 
L 136.5 146.88 
L 136.5 131.394302 
L 133.293103 131.394302 
z
" style="fill:#1f77b4;"/>
   </g>
   <g id="patch_6">
    <path clip-path="url(#p75d2d488bc)" d="M 152.534483 146.88 
L 155.741379 146.88 
L 155.741379 131.393914 
L 152.534483 131.393914 
z
" style="fill:#1f77b4;"/>
   </g>
   <g id="patch_7">
    <path clip-path="url(#p75d2d488bc)" d="M 171.775862 146.88 
L 174.982759 146.88 
L 174.982759 136.990297 
L 171.775862 136.990297 
z
" style="fill:#1f77b4;"/>
   </g>
   <g id="patch_8">
    <path clip-path="url(#p75d2d488bc)" d="M 191.017241 146.88 
L 194.224138 146.88 
L 194.224138 128.478727 
L 191.017241 128.478727 
z
" style="fill:#1f77b4;"/>
   </g>
   <g id="patch_9">
    <path clip-path="url(#p75d2d488bc)" d="M 210.258621 146.88 
L 213.465517 146.88 
L 213.465517 136.407343 
L 210.258621 136.407343 
z
" style="fill:#1f77b4;"/>
   </g>
   <g id="patch_10">
    <path clip-path="url(#p75d2d488bc)" d="M 229.5 146.88 
L 232.706897 146.88 
L 232.706897 123.044589 
L 229.5 123.044589 
z
" style="fill:#1f77b4;"/>
   </g>
   <g id="patch_11">
    <path clip-path="url(#p75d2d488bc)" d="M 248.741379 146.88 
L 251.948276 146.88 
L 251.948276 134.338433 
L 248.741379 134.338433 
z
" style="fill:#1f77b4;"/>
   </g>
   <g id="patch_12">
    <path clip-path="url(#p75d2d488bc)" d="M 267.982759 146.88 
L 271.189655 146.88 
L 271.189655 125.094378 
L 267.982759 125.094378 
z
" style="fill:#1f77b4;"/>
   </g>
   <g id="patch_13">
    <path clip-path="url(#p75d2d488bc)" d="M 287.224138 146.88 
L 290.431034 146.88 
L 290.431034 136.566504 
L 287.224138 136.566504 
z
" style="fill:#1f77b4;"/>
   </g>
   <g id="patch_14">
    <path clip-path="url(#p75d2d488bc)" d="M 306.465517 146.88 
L 309.672414 146.88 
L 309.672414 135.432429 
L 306.465517 135.432429 
z
" style="fill:#1f77b4;"/>
   </g>
   <g id="patch_15">
    <path clip-path="url(#p75d2d488bc)" d="M 325.706897 146.88 
L 328.913793 146.88 
L 328.913793 112.790764 
L 325.706897 112.790764 
z
" style="fill:#1f77b4;"/>
   </g>
   <g id="patch_16">
    <path clip-path="url(#p75d2d488bc)" d="M 344.948276 146.88 
L 348.155172 146.88 
L 348.155172 119.321073 
L 344.948276 119.321073 
z
" style="fill:#1f77b4;"/>
   </g>
   <g id="patch_17">
    <path clip-path="url(#p75d2d488bc)" d="M 364.189655 146.88 
L 367.396552 146.88 
L 367.396552 132.010063 
L 364.189655 132.010063 
z
" style="fill:#1f77b4;"/>
   </g>
   <g id="patch_18">
    <path clip-path="url(#p75d2d488bc)" d="M 383.431034 146.88 
L 386.637931 146.88 
L 386.637931 123.820167 
L 383.431034 123.820167 
z
" style="fill:#1f77b4;"/>
   </g>
   <g id="patch_19">
    <path clip-path="url(#p75d2d488bc)" d="M 402.672414 146.88 
L 405.87931 146.88 
L 405.87931 142.698005 
L 402.672414 142.698005 
z
" style="fill:#1f77b4;"/>
   </g>
   <g id="patch_20">
    <path clip-path="url(#p75d2d488bc)" d="M 421.913793 146.88 
L 425.12069 146.88 
L 425.12069 128.917557 
L 421.913793 128.917557 
z
" style="fill:#1f77b4;"/>
   </g>
   <g id="patch_21">
    <path clip-path="url(#p75d2d488bc)" d="M 441.155172 146.88 
L 444.362069 146.88 
L 444.362069 129.377575 
L 441.155172 129.377575 
z
" style="fill:#1f77b4;"/>
   </g>
   <g id="patch_22">
    <path clip-path="url(#p75d2d488bc)" d="M 460.396552 146.88 
L 463.603448 146.88 
L 463.603448 143.701679 
L 460.396552 143.701679 
z
" style="fill:#1f77b4;"/>
   </g>
   <g id="patch_23">
    <path clip-path="url(#p75d2d488bc)" d="M 479.637931 146.88 
L 482.844828 146.88 
L 482.844828 127.188557 
L 479.637931 127.188557 
z
" style="fill:#1f77b4;"/>
   </g>
   <g id="patch_24">
    <path clip-path="url(#p75d2d488bc)" d="M 498.87931 146.88 
L 502.086207 146.88 
L 502.086207 139.253221 
L 498.87931 139.253221 
z
" style="fill:#1f77b4;"/>
   </g>
   <g id="patch_25">
    <path clip-path="url(#p75d2d488bc)" d="M 518.12069 146.88 
L 521.327586 146.88 
L 521.327586 119.980308 
L 518.12069 119.980308 
z
" style="fill:#1f77b4;"/>
   </g>
   <g id="patch_26">
    <path clip-path="url(#p75d2d488bc)" d="M 537.362069 146.88 
L 540.568966 146.88 
L 540.568966 133.245479 
L 537.362069 133.245479 
z
" style="fill:#1f77b4;"/>
   </g>
   <g id="patch_27">
    <path clip-path="url(#p75d2d488bc)" d="M 556.603448 146.88 
L 559.810345 146.88 
L 559.810345 129.832297 
L 556.603448 129.832297 
z
" style="fill:#1f77b4;"/>
   </g>
   <g id="patch_28">
    <path clip-path="url(#p75d2d488bc)" d="M 575.844828 146.88 
L 579.051724 146.88 
L 579.051724 145.349544 
L 575.844828 145.349544 
z
" style="fill:#1f77b4;"/>
   </g>
   <g id="patch_29">
    <path clip-path="url(#p75d2d488bc)" d="M 595.086207 146.88 
L 598.293103 146.88 
L 598.293103 133.800411 
L 595.086207 133.800411 
z
" style="fill:#1f77b4;"/>
   </g>
   <g id="patch_30">
    <path clip-path="url(#p75d2d488bc)" d="M 614.327586 146.88 
L 617.534483 146.88 
L 617.534483 135.122375 
L 614.327586 135.122375 
z
" style="fill:#1f77b4;"/>
   </g>
   <g id="patch_31">
    <path clip-path="url(#p75d2d488bc)" d="M 633.568966 146.88 
L 636.775862 146.88 
L 636.775862 133.800629 
L 633.568966 133.800629 
z
" style="fill:#1f77b4;"/>
   </g>
   <g id="patch_32">
    <path clip-path="url(#p75d2d488bc)" d="M 98.017241 146.88 
L 101.224138 146.88 
L 101.224138 145.990309 
L 98.017241 145.990309 
z
" style="fill:#ff7f0e;"/>
   </g>
   <g id="patch_33">
    <path clip-path="url(#p75d2d488bc)" d="M 117.258621 146.88 
L 120.465517 146.88 
L 120.465517 143.982497 
L 117.258621 143.982497 
z
" style="fill:#ff7f0e;"/>
   </g>
   <g id="patch_34">
    <path clip-path="url(#p75d2d488bc)" d="M 136.5 146.88 
L 139.706897 146.88 
L 139.706897 86.346673 
L 136.5 86.346673 
z
" style="fill:#ff7f0e;"/>
   </g>
   <g id="patch_35">
    <path clip-path="url(#p75d2d488bc)" d="M 155.741379 146.88 
L 158.948276 146.88 
L 158.948276 86.346522 
L 155.741379 86.346522 
z
" style="fill:#ff7f0e;"/>
   </g>
   <g id="patch_36">
    <path clip-path="url(#p75d2d488bc)" d="M 174.982759 146.88 
L 178.189655 146.88 
L 178.189655 141.177586 
L 174.982759 141.177586 
z
" style="fill:#ff7f0e;"/>
   </g>
   <g id="patch_37">
    <path clip-path="url(#p75d2d488bc)" d="M 194.224138 146.88 
L 197.431034 146.88 
L 197.431034 72.41898 
L 194.224138 72.41898 
z
" style="fill:#ff7f0e;"/>
   </g>
   <g id="patch_38">
    <path clip-path="url(#p75d2d488bc)" d="M 213.465517 146.88 
L 216.672414 146.88 
L 216.672414 57.842052 
L 213.465517 57.842052 
z
" style="fill:#ff7f0e;"/>
   </g>
   <g id="patch_39">
    <path clip-path="url(#p75d2d488bc)" d="M 232.706897 146.88 
L 235.913793 146.88 
L 235.913793 139.760253 
L 232.706897 139.760253 
z
" style="fill:#ff7f0e;"/>
   </g>
   <g id="patch_40">
    <path clip-path="url(#p75d2d488bc)" d="M 251.948276 146.88 
L 255.155172 146.88 
L 255.155172 59.833913 
L 251.948276 59.833913 
z
" style="fill:#ff7f0e;"/>
   </g>
   <g id="patch_41">
    <path clip-path="url(#p75d2d488bc)" d="M 271.189655 146.88 
L 274.396552 146.88 
L 274.396552 40.67068 
L 271.189655 40.67068 
z
" style="fill:#ff7f0e;"/>
   </g>
   <g id="patch_42">
    <path clip-path="url(#p75d2d488bc)" d="M 290.431034 146.88 
L 293.637931 146.88 
L 293.637931 129.849504 
L 290.431034 129.849504 
z
" style="fill:#ff7f0e;"/>
   </g>
   <g id="patch_43">
    <path clip-path="url(#p75d2d488bc)" d="M 309.672414 146.88 
L 312.87931 146.88 
L 312.87931 55.963832 
L 309.672414 55.963832 
z
" style="fill:#ff7f0e;"/>
   </g>
   <g id="patch_44">
    <path clip-path="url(#p75d2d488bc)" d="M 328.913793 146.88 
L 332.12069 146.88 
L 332.12069 47.388037 
L 328.913793 47.388037 
z
" style="fill:#ff7f0e;"/>
   </g>
   <g id="patch_45">
    <path clip-path="url(#p75d2d488bc)" d="M 348.155172 146.88 
L 351.362069 146.88 
L 351.362069 124.07963 
L 348.155172 124.07963 
z
" style="fill:#ff7f0e;"/>
   </g>
   <g id="patch_46">
    <path clip-path="url(#p75d2d488bc)" d="M 367.396552 146.88 
L 370.603448 146.88 
L 370.603448 53.107756 
L 367.396552 53.107756 
z
" style="fill:#ff7f0e;"/>
   </g>
   <g id="patch_47">
    <path clip-path="url(#p75d2d488bc)" d="M 386.637931 146.88 
L 389.844828 146.88 
L 389.844828 67.859905 
L 386.637931 67.859905 
z
" style="fill:#ff7f0e;"/>
   </g>
   <g id="patch_48">
    <path clip-path="url(#p75d2d488bc)" d="M 405.87931 146.88 
L 409.086207 146.88 
L 409.086207 143.903329 
L 405.87931 143.903329 
z
" style="fill:#ff7f0e;"/>
   </g>
   <g id="patch_49">
    <path clip-path="url(#p75d2d488bc)" d="M 425.12069 146.88 
L 428.327586 146.88 
L 428.327586 50.894728 
L 425.12069 50.894728 
z
" style="fill:#ff7f0e;"/>
   </g>
   <g id="patch_50">
    <path clip-path="url(#p75d2d488bc)" d="M 444.362069 146.88 
L 447.568966 146.88 
L 447.568966 83.931402 
L 444.362069 83.931402 
z
" style="fill:#ff7f0e;"/>
   </g>
   <g id="patch_51">
    <path clip-path="url(#p75d2d488bc)" d="M 463.603448 146.88 
L 466.810345 146.88 
L 466.810345 120.697899 
L 463.603448 120.697899 
z
" style="fill:#ff7f0e;"/>
   </g>
   <g id="patch_52">
    <path clip-path="url(#p75d2d488bc)" d="M 482.844828 146.88 
L 486.051724 146.88 
L 486.051724 52.837719 
L 482.844828 52.837719 
z
" style="fill:#ff7f0e;"/>
   </g>
   <g id="patch_53">
    <path clip-path="url(#p75d2d488bc)" d="M 502.086207 146.88 
L 505.293103 146.88 
L 505.293103 69.895666 
L 502.086207 69.895666 
z
" style="fill:#ff7f0e;"/>
   </g>
   <g id="patch_54">
    <path clip-path="url(#p75d2d488bc)" d="M 521.327586 146.88 
L 524.534483 146.88 
L 524.534483 130.756408 
L 521.327586 130.756408 
z
" style="fill:#ff7f0e;"/>
   </g>
   <g id="patch_55">
    <path clip-path="url(#p75d2d488bc)" d="M 540.568966 146.88 
L 543.775862 146.88 
L 543.775862 58.821582 
L 540.568966 58.821582 
z
" style="fill:#ff7f0e;"/>
   </g>
   <g id="patch_56">
    <path clip-path="url(#p75d2d488bc)" d="M 559.810345 146.88 
L 563.017241 146.88 
L 563.017241 81.619958 
L 559.810345 81.619958 
z
" style="fill:#ff7f0e;"/>
   </g>
   <g id="patch_57">
    <path clip-path="url(#p75d2d488bc)" d="M 579.051724 146.88 
L 582.258621 146.88 
L 582.258621 133.774626 
L 579.051724 133.774626 
z
" style="fill:#ff7f0e;"/>
   </g>
   <g id="patch_58">
    <path clip-path="url(#p75d2d488bc)" d="M 598.293103 146.88 
L 601.5 146.88 
L 601.5 60.699636 
L 598.293103 60.699636 
z
" style="fill:#ff7f0e;"/>
   </g>
   <g id="patch_59">
    <path clip-path="url(#p75d2d488bc)" d="M 617.534483 146.88 
L 620.741379 146.88 
L 620.741379 113.242979 
L 617.534483 113.242979 
z
" style="fill:#ff7f0e;"/>
   </g>
   <g id="patch_60">
    <path clip-path="url(#p75d2d488bc)" d="M 636.775862 146.88 
L 639.982759 146.88 
L 639.982759 60.699626 
L 636.775862 60.699626 
z
" style="fill:#ff7f0e;"/>
   </g>
   <g id="patch_61">
    <path clip-path="url(#p75d2d488bc)" d="M 101.224138 146.88 
L 104.431034 146.88 
L 104.431034 141.188827 
L 101.224138 141.188827 
z
" style="fill:#2ca02c;"/>
   </g>
   <g id="patch_62">
    <path clip-path="url(#p75d2d488bc)" d="M 120.465517 146.88 
L 123.672414 146.88 
L 123.672414 123.149597 
L 120.465517 123.149597 
z
" style="fill:#2ca02c;"/>
   </g>
   <g id="patch_63">
    <path clip-path="url(#p75d2d488bc)" d="M 139.706897 146.88 
L 142.913793 146.88 
L 142.913793 115.366023 
L 139.706897 115.366023 
z
" style="fill:#2ca02c;"/>
   </g>
   <g id="patch_64">
    <path clip-path="url(#p75d2d488bc)" d="M 158.948276 146.88 
L 162.155172 146.88 
L 162.155172 115.366065 
L 158.948276 115.366065 
z
" style="fill:#2ca02c;"/>
   </g>
   <g id="patch_65">
    <path clip-path="url(#p75d2d488bc)" d="M 178.189655 146.88 
L 181.396552 146.88 
L 181.396552 126.832744 
L 178.189655 126.832744 
z
" style="fill:#2ca02c;"/>
   </g>
   <g id="patch_66">
    <path clip-path="url(#p75d2d488bc)" d="M 197.431034 146.88 
L 200.637931 146.88 
L 200.637931 91.984877 
L 197.431034 91.984877 
z
" style="fill:#2ca02c;"/>
   </g>
   <g id="patch_67">
    <path clip-path="url(#p75d2d488bc)" d="M 216.672414 146.88 
L 219.87931 146.88 
L 219.87931 79.047741 
L 216.672414 79.047741 
z
" style="fill:#2ca02c;"/>
   </g>
   <g id="patch_68">
    <path clip-path="url(#p75d2d488bc)" d="M 235.913793 146.88 
L 239.12069 146.88 
L 239.12069 126.118086 
L 235.913793 126.118086 
z
" style="fill:#2ca02c;"/>
   </g>
   <g id="patch_69">
    <path clip-path="url(#p75d2d488bc)" d="M 255.155172 146.88 
L 258.362069 146.88 
L 258.362069 90.04237 
L 255.155172 90.04237 
z
" style="fill:#2ca02c;"/>
   </g>
   <g id="patch_70">
    <path clip-path="url(#p75d2d488bc)" d="M 274.396552 146.88 
L 277.603448 146.88 
L 277.603448 116.356685 
L 274.396552 116.356685 
z
" style="fill:#2ca02c;"/>
   </g>
   <g id="patch_71">
    <path clip-path="url(#p75d2d488bc)" d="M 293.637931 146.88 
L 296.844828 146.88 
L 296.844828 131.569943 
L 293.637931 131.569943 
z
" style="fill:#2ca02c;"/>
   </g>
   <g id="patch_72">
    <path clip-path="url(#p75d2d488bc)" d="M 312.87931 146.88 
L 316.086207 146.88 
L 316.086207 81.050745 
L 312.87931 81.050745 
z
" style="fill:#2ca02c;"/>
   </g>
   <g id="patch_73">
    <path clip-path="url(#p75d2d488bc)" d="M 332.12069 146.88 
L 335.327586 146.88 
L 335.327586 67.315802 
L 332.12069 67.315802 
z
" style="fill:#2ca02c;"/>
   </g>
   <g id="patch_74">
    <path clip-path="url(#p75d2d488bc)" d="M 351.362069 146.88 
L 354.568966 146.88 
L 354.568966 120.187752 
L 351.362069 120.187752 
z
" style="fill:#2ca02c;"/>
   </g>
   <g id="patch_75">
    <path clip-path="url(#p75d2d488bc)" d="M 370.603448 146.88 
L 373.810345 146.88 
L 373.810345 75.194499 
L 370.603448 75.194499 
z
" style="fill:#2ca02c;"/>
   </g>
   <g id="patch_76">
    <path clip-path="url(#p75d2d488bc)" d="M 389.844828 146.88 
L 393.051724 146.88 
L 393.051724 87.581385 
L 389.844828 87.581385 
z
" style="fill:#2ca02c;"/>
   </g>
   <g id="patch_77">
    <path clip-path="url(#p75d2d488bc)" d="M 409.086207 146.88 
L 412.293103 146.88 
L 412.293103 133.410556 
L 409.086207 133.410556 
z
" style="fill:#2ca02c;"/>
   </g>
   <g id="patch_78">
    <path clip-path="url(#p75d2d488bc)" d="M 428.327586 146.88 
L 431.534483 146.88 
L 431.534483 70.40722 
L 428.327586 70.40722 
z
" style="fill:#2ca02c;"/>
   </g>
   <g id="patch_79">
    <path clip-path="url(#p75d2d488bc)" d="M 447.568966 146.88 
L 450.775862 146.88 
L 450.775862 97.010007 
L 447.568966 97.010007 
z
" style="fill:#2ca02c;"/>
   </g>
   <g id="patch_80">
    <path clip-path="url(#p75d2d488bc)" d="M 466.810345 146.88 
L 470.017241 146.88 
L 470.017241 133.769012 
L 466.810345 133.769012 
z
" style="fill:#2ca02c;"/>
   </g>
   <g id="patch_81">
    <path clip-path="url(#p75d2d488bc)" d="M 486.051724 146.88 
L 489.258621 146.88 
L 489.258621 68.494924 
L 486.051724 68.494924 
z
" style="fill:#2ca02c;"/>
   </g>
   <g id="patch_82">
    <path clip-path="url(#p75d2d488bc)" d="M 505.293103 146.88 
L 508.5 146.88 
L 508.5 96.176332 
L 505.293103 96.176332 
z
" style="fill:#2ca02c;"/>
   </g>
   <g id="patch_83">
    <path clip-path="url(#p75d2d488bc)" d="M 524.534483 146.88 
L 527.741379 146.88 
L 527.741379 134.480858 
L 524.534483 134.480858 
z
" style="fill:#2ca02c;"/>
   </g>
   <g id="patch_84">
    <path clip-path="url(#p75d2d488bc)" d="M 543.775862 146.88 
L 546.982759 146.88 
L 546.982759 67.679343 
L 543.775862 67.679343 
z
" style="fill:#2ca02c;"/>
   </g>
   <g id="patch_85">
    <path clip-path="url(#p75d2d488bc)" d="M 563.017241 146.88 
L 566.224138 146.88 
L 566.224138 100.652838 
L 563.017241 100.652838 
z
" style="fill:#2ca02c;"/>
   </g>
   <g id="patch_86">
    <path clip-path="url(#p75d2d488bc)" d="M 582.258621 146.88 
L 585.465517 146.88 
L 585.465517 130.618162 
L 582.258621 130.618162 
z
" style="fill:#2ca02c;"/>
   </g>
   <g id="patch_87">
    <path clip-path="url(#p75d2d488bc)" d="M 601.5 146.88 
L 604.706897 146.88 
L 604.706897 66.066078 
L 601.5 66.066078 
z
" style="fill:#2ca02c;"/>
   </g>
   <g id="patch_88">
    <path clip-path="url(#p75d2d488bc)" d="M 620.741379 146.88 
L 623.948276 146.88 
L 623.948276 91.314732 
L 620.741379 91.314732 
z
" style="fill:#2ca02c;"/>
   </g>
   <g id="patch_89">
    <path clip-path="url(#p75d2d488bc)" d="M 639.982759 146.88 
L 643.189655 146.88 
L 643.189655 66.066082 
L 639.982759 66.066082 
z
" style="fill:#2ca02c;"/>
   </g>
   <g id="patch_90">
    <path d="M 90 146.88 
L 90 25.92 
" style="fill:none;stroke:#000000;stroke-linecap:square;stroke-linejoin:miter;stroke-width:0.8;"/>
   </g>
   <g id="patch_91">
    <path d="M 648 146.88 
L 648 25.92 
" style="fill:none;stroke:#000000;stroke-linecap:square;stroke-linejoin:miter;stroke-width:0.8;"/>
   </g>
   <g id="patch_92">
    <path d="M 90 146.88 
L 648 146.88 
" style="fill:none;stroke:#000000;stroke-linecap:square;stroke-linejoin:miter;stroke-width:0.8;"/>
   </g>
   <g id="patch_93">
    <path d="M 90 25.92 
L 648 25.92 
" style="fill:none;stroke:#000000;stroke-linecap:square;stroke-linejoin:miter;stroke-width:0.8;"/>
   </g>
   <g id="text_37">
    <!-- Error in the estimation of E[logEDP] -->
    <g transform="translate(262.244062 19.92)scale(0.12 -0.12)">
     <defs>
      <path d="M 54.890625 33.015625 
L 54.890625 0 
L 45.90625 0 
L 45.90625 32.71875 
Q 45.90625 40.484375 42.875 44.328125 
Q 39.84375 48.1875 33.796875 48.1875 
Q 26.515625 48.1875 22.3125 43.546875 
Q 18.109375 38.921875 18.109375 30.90625 
L 18.109375 0 
L 9.078125 0 
L 9.078125 75.984375 
L 18.109375 75.984375 
L 18.109375 46.1875 
Q 21.34375 51.125 25.703125 53.5625 
Q 30.078125 56 35.796875 56 
Q 45.21875 56 50.046875 50.171875 
Q 54.890625 44.34375 54.890625 33.015625 
z
" id="DejaVuSans-104"/>
      <path d="M 37.109375 75.984375 
L 37.109375 68.5 
L 28.515625 68.5 
Q 23.6875 68.5 21.796875 66.546875 
Q 19.921875 64.59375 19.921875 59.515625 
L 19.921875 54.6875 
L 34.71875 54.6875 
L 34.71875 47.703125 
L 19.921875 47.703125 
L 19.921875 0 
L 10.890625 0 
L 10.890625 47.703125 
L 2.296875 47.703125 
L 2.296875 54.6875 
L 10.890625 54.6875 
L 10.890625 58.5 
Q 10.890625 67.625 15.140625 71.796875 
Q 19.390625 75.984375 28.609375 75.984375 
z
" id="DejaVuSans-102"/>
      <path d="M 8.59375 75.984375 
L 29.296875 75.984375 
L 29.296875 69 
L 17.578125 69 
L 17.578125 -6.203125 
L 29.296875 -6.203125 
L 29.296875 -13.1875 
L 8.59375 -13.1875 
z
" id="DejaVuSans-91"/>
      <path d="M 9.421875 75.984375 
L 18.40625 75.984375 
L 18.40625 0 
L 9.421875 0 
z
" id="DejaVuSans-108"/>
      <path d="M 45.40625 27.984375 
Q 45.40625 37.75 41.375 43.109375 
Q 37.359375 48.484375 30.078125 48.484375 
Q 22.859375 48.484375 18.828125 43.109375 
Q 14.796875 37.75 14.796875 27.984375 
Q 14.796875 18.265625 18.828125 12.890625 
Q 22.859375 7.515625 30.078125 7.515625 
Q 37.359375 7.515625 41.375 12.890625 
Q 45.40625 18.265625 45.40625 27.984375 
z
M 54.390625 6.78125 
Q 54.390625 -7.171875 48.1875 -13.984375 
Q 42 -20.796875 29.203125 -20.796875 
Q 24.46875 -20.796875 20.265625 -20.09375 
Q 16.0625 -19.390625 12.109375 -17.921875 
L 12.109375 -9.1875 
Q 16.0625 -11.328125 19.921875 -12.34375 
Q 23.78125 -13.375 27.78125 -13.375 
Q 36.625 -13.375 41.015625 -8.765625 
Q 45.40625 -4.15625 45.40625 5.171875 
L 45.40625 9.625 
Q 42.625 4.78125 38.28125 2.390625 
Q 33.9375 0 27.875 0 
Q 17.828125 0 11.671875 7.65625 
Q 5.515625 15.328125 5.515625 27.984375 
Q 5.515625 40.671875 11.671875 48.328125 
Q 17.828125 56 27.875 56 
Q 33.9375 56 38.28125 53.609375 
Q 42.625 51.21875 45.40625 46.390625 
L 45.40625 54.6875 
L 54.390625 54.6875 
z
" id="DejaVuSans-103"/>
      <path d="M 30.421875 75.984375 
L 30.421875 -13.1875 
L 9.71875 -13.1875 
L 9.71875 -6.203125 
L 21.390625 -6.203125 
L 21.390625 69 
L 9.71875 69 
L 9.71875 75.984375 
z
" id="DejaVuSans-93"/>
     </defs>
     <use xlink:href="#DejaVuSans-69"/>
     <use x="63.183594" xlink:href="#DejaVuSans-114"/>
     <use x="102.546875" xlink:href="#DejaVuSans-114"/>
     <use x="141.410156" xlink:href="#DejaVuSans-111"/>
     <use x="202.591797" xlink:href="#DejaVuSans-114"/>
     <use x="243.705078" xlink:href="#DejaVuSans-32"/>
     <use x="275.492188" xlink:href="#DejaVuSans-105"/>
     <use x="303.275391" xlink:href="#DejaVuSans-110"/>
     <use x="366.654297" xlink:href="#DejaVuSans-32"/>
     <use x="398.441406" xlink:href="#DejaVuSans-116"/>
     <use x="437.650391" xlink:href="#DejaVuSans-104"/>
     <use x="501.029297" xlink:href="#DejaVuSans-101"/>
     <use x="562.552734" xlink:href="#DejaVuSans-32"/>
     <use x="594.339844" xlink:href="#DejaVuSans-101"/>
     <use x="655.863281" xlink:href="#DejaVuSans-115"/>
     <use x="707.962891" xlink:href="#DejaVuSans-116"/>
     <use x="747.171875" xlink:href="#DejaVuSans-105"/>
     <use x="774.955078" xlink:href="#DejaVuSans-109"/>
     <use x="872.367188" xlink:href="#DejaVuSans-97"/>
     <use x="933.646484" xlink:href="#DejaVuSans-116"/>
     <use x="972.855469" xlink:href="#DejaVuSans-105"/>
     <use x="1000.638672" xlink:href="#DejaVuSans-111"/>
     <use x="1061.820312" xlink:href="#DejaVuSans-110"/>
     <use x="1125.199219" xlink:href="#DejaVuSans-32"/>
     <use x="1156.986328" xlink:href="#DejaVuSans-111"/>
     <use x="1218.167969" xlink:href="#DejaVuSans-102"/>
     <use x="1253.373047" xlink:href="#DejaVuSans-32"/>
     <use x="1285.160156" xlink:href="#DejaVuSans-69"/>
     <use x="1348.34375" xlink:href="#DejaVuSans-91"/>
     <use x="1387.357422" xlink:href="#DejaVuSans-108"/>
     <use x="1415.140625" xlink:href="#DejaVuSans-111"/>
     <use x="1476.322266" xlink:href="#DejaVuSans-103"/>
     <use x="1539.798828" xlink:href="#DejaVuSans-69"/>
     <use x="1602.982422" xlink:href="#DejaVuSans-68"/>
     <use x="1679.984375" xlink:href="#DejaVuSans-80"/>
     <use x="1740.287109" xlink:href="#DejaVuSans-93"/>
    </g>
   </g>
   <g id="legend_1">
    <g id="patch_94">
     <path d="M 335.790625 48.598125 
L 641 48.598125 
Q 643 48.598125 643 46.598125 
L 643 32.92 
Q 643 30.92 641 30.92 
L 335.790625 30.92 
Q 333.790625 30.92 333.790625 32.92 
L 333.790625 46.598125 
Q 333.790625 48.598125 335.790625 48.598125 
z
" style="fill:#ffffff;opacity:0.8;stroke:#cccccc;stroke-linejoin:miter;"/>
    </g>
    <g id="patch_95">
     <path d="M 337.790625 42.518437 
L 357.790625 42.518437 
L 357.790625 35.518437 
L 337.790625 35.518437 
z
" style="fill:#1f77b4;"/>
    </g>
    <g id="text_38">
     <!-- MF -->
     <g transform="translate(365.790625 42.518437)scale(0.1 -0.1)">
      <defs>
       <path d="M 9.8125 72.90625 
L 24.515625 72.90625 
L 43.109375 23.296875 
L 61.8125 72.90625 
L 76.515625 72.90625 
L 76.515625 0 
L 66.890625 0 
L 66.890625 64.015625 
L 48.09375 14.015625 
L 38.1875 14.015625 
L 19.390625 64.015625 
L 19.390625 0 
L 9.8125 0 
z
" id="DejaVuSans-77"/>
      </defs>
      <use xlink:href="#DejaVuSans-77"/>
      <use x="86.279297" xlink:href="#DejaVuSans-70"/>
     </g>
    </g>
    <g id="patch_96">
     <path d="M 400.170312 42.518437 
L 420.170312 42.518437 
L 420.170312 35.518437 
L 400.170312 35.518437 
z
" style="fill:#ff7f0e;"/>
    </g>
    <g id="text_39">
     <!-- only HF (n=32) -->
     <g transform="translate(428.170312 42.518437)scale(0.1 -0.1)">
      <defs>
       <path d="M 32.171875 -5.078125 
Q 28.375 -14.84375 24.75 -17.8125 
Q 21.140625 -20.796875 15.09375 -20.796875 
L 7.90625 -20.796875 
L 7.90625 -13.28125 
L 13.1875 -13.28125 
Q 16.890625 -13.28125 18.9375 -11.515625 
Q 21 -9.765625 23.484375 -3.21875 
L 25.09375 0.875 
L 2.984375 54.6875 
L 12.5 54.6875 
L 29.59375 11.921875 
L 46.6875 54.6875 
L 56.203125 54.6875 
z
" id="DejaVuSans-121"/>
       <path d="M 9.8125 72.90625 
L 19.671875 72.90625 
L 19.671875 43.015625 
L 55.515625 43.015625 
L 55.515625 72.90625 
L 65.375 72.90625 
L 65.375 0 
L 55.515625 0 
L 55.515625 34.71875 
L 19.671875 34.71875 
L 19.671875 0 
L 9.8125 0 
z
" id="DejaVuSans-72"/>
       <path d="M 31 75.875 
Q 24.46875 64.65625 21.28125 53.65625 
Q 18.109375 42.671875 18.109375 31.390625 
Q 18.109375 20.125 21.3125 9.0625 
Q 24.515625 -2 31 -13.1875 
L 23.1875 -13.1875 
Q 15.875 -1.703125 12.234375 9.375 
Q 8.59375 20.453125 8.59375 31.390625 
Q 8.59375 42.28125 12.203125 53.3125 
Q 15.828125 64.359375 23.1875 75.875 
z
" id="DejaVuSans-40"/>
       <path d="M 10.59375 45.40625 
L 73.1875 45.40625 
L 73.1875 37.203125 
L 10.59375 37.203125 
z
M 10.59375 25.484375 
L 73.1875 25.484375 
L 73.1875 17.1875 
L 10.59375 17.1875 
z
" id="DejaVuSans-61"/>
       <path d="M 8.015625 75.875 
L 15.828125 75.875 
Q 23.140625 64.359375 26.78125 53.3125 
Q 30.421875 42.28125 30.421875 31.390625 
Q 30.421875 20.453125 26.78125 9.375 
Q 23.140625 -1.703125 15.828125 -13.1875 
L 8.015625 -13.1875 
Q 14.5 -2 17.703125 9.0625 
Q 20.90625 20.125 20.90625 31.390625 
Q 20.90625 42.671875 17.703125 53.65625 
Q 14.5 64.65625 8.015625 75.875 
z
" id="DejaVuSans-41"/>
      </defs>
      <use xlink:href="#DejaVuSans-111"/>
      <use x="61.181641" xlink:href="#DejaVuSans-110"/>
      <use x="124.560547" xlink:href="#DejaVuSans-108"/>
      <use x="152.34375" xlink:href="#DejaVuSans-121"/>
      <use x="211.523438" xlink:href="#DejaVuSans-32"/>
      <use x="243.310547" xlink:href="#DejaVuSans-72"/>
      <use x="318.505859" xlink:href="#DejaVuSans-70"/>
      <use x="376.025391" xlink:href="#DejaVuSans-32"/>
      <use x="407.8125" xlink:href="#DejaVuSans-40"/>
      <use x="446.826172" xlink:href="#DejaVuSans-110"/>
      <use x="510.205078" xlink:href="#DejaVuSans-61"/>
      <use x="593.994141" xlink:href="#DejaVuSans-51"/>
      <use x="657.617188" xlink:href="#DejaVuSans-50"/>
      <use x="721.240234" xlink:href="#DejaVuSans-41"/>
     </g>
    </g>
    <g id="patch_97">
     <path d="M 524.196875 42.518437 
L 544.196875 42.518437 
L 544.196875 35.518437 
L 524.196875 35.518437 
z
" style="fill:#2ca02c;"/>
    </g>
    <g id="text_40">
     <!-- only LF (n=1091) -->
     <g transform="translate(552.196875 42.518437)scale(0.1 -0.1)">
      <defs>
       <path d="M 9.8125 72.90625 
L 19.671875 72.90625 
L 19.671875 8.296875 
L 55.171875 8.296875 
L 55.171875 0 
L 9.8125 0 
z
" id="DejaVuSans-76"/>
      </defs>
      <use xlink:href="#DejaVuSans-111"/>
      <use x="61.181641" xlink:href="#DejaVuSans-110"/>
      <use x="124.560547" xlink:href="#DejaVuSans-108"/>
      <use x="152.34375" xlink:href="#DejaVuSans-121"/>
      <use x="211.523438" xlink:href="#DejaVuSans-32"/>
      <use x="243.310547" xlink:href="#DejaVuSans-76"/>
      <use x="299.023438" xlink:href="#DejaVuSans-70"/>
      <use x="356.542969" xlink:href="#DejaVuSans-32"/>
      <use x="388.330078" xlink:href="#DejaVuSans-40"/>
      <use x="427.34375" xlink:href="#DejaVuSans-110"/>
      <use x="490.722656" xlink:href="#DejaVuSans-61"/>
      <use x="574.511719" xlink:href="#DejaVuSans-49"/>
      <use x="638.134766" xlink:href="#DejaVuSans-48"/>
      <use x="701.757812" xlink:href="#DejaVuSans-57"/>
      <use x="765.380859" xlink:href="#DejaVuSans-49"/>
      <use x="829.003906" xlink:href="#DejaVuSans-41"/>
     </g>
    </g>
   </g>
  </g>
 </g>
 <defs>
  <clipPath id="p75d2d488bc">
   <rect height="120.96" width="558" x="90" y="25.92"/>
  </clipPath>
 </defs>
</svg>
