<svg version="1.1" id="Layer_1" xmlns="http://www.w3.org/2000/svg" xmlns:xlink="http://www.w3.org/1999/xlink" x="0px" y="0px"
	 width="100%" viewBox="0 0 1124 1024" enable-background="new 0 0 1124 1024" xml:space="preserve">
<path fill="#FFFFFF" opacity="0.000000" stroke="none" 
	d="
M0.999999,623.000000 
	C1.000000,415.705048 1.000000,208.410080 1.000000,1.057558 
	C342.231750,1.057558 683.463562,1.057558 1025.000000,1.057558 
	C1025.000000,208.026749 1025.000000,415.053650 1024.550049,622.394836 
	C999.859070,622.714844 975.617920,622.720581 951.580566,622.430664 
	C954.508118,619.125671 957.231934,616.116333 960.086609,612.962463 
	C946.099182,610.532410 932.463257,608.636353 919.054871,605.701111 
	C905.648926,602.766235 892.470398,598.792175 878.972717,595.215576 
	C879.551270,594.218811 879.645386,593.832336 879.887573,593.677734 
	C881.006226,592.963379 882.169739,592.319397 883.310852,591.639648 
	C905.329346,578.524597 920.156372,559.792969 927.167175,535.080444 
	C933.749878,511.876648 934.021606,488.407349 929.261841,464.876526 
	C925.419739,445.882111 917.383606,428.945587 903.376282,414.883789 
	C903.076172,414.383911 902.829773,414.182983 902.370728,413.881470 
	C902.073975,413.385162 901.829468,413.186127 901.362000,412.876160 
	C900.953186,412.468109 900.687378,412.269165 900.349243,411.977844 
	C900.276978,411.885468 899.920593,411.570984 899.729858,411.274414 
	C892.161499,405.928070 885.238525,399.971832 877.320007,396.000427 
	C854.538330,384.574524 830.132202,383.031250 805.293030,386.528168 
	C786.141174,389.224396 768.757446,396.196503 753.945312,409.529663 
	C751.049316,412.402863 748.418762,415.101990 745.492432,417.958496 
	C740.722595,424.690918 735.441528,430.862396 731.916321,437.911957 
	C717.711121,466.319122 716.392273,496.324127 722.769714,526.874756 
	C727.541260,549.732361 738.715149,568.962097 757.415527,583.888306 
	C764.719238,588.407532 771.468018,593.396667 778.939514,596.797852 
	C795.416321,604.298462 813.021423,606.160339 830.993286,605.365356 
	C834.379028,605.215515 838.234985,604.837219 841.118103,606.183289 
	C850.413635,610.523376 859.368164,615.597107 868.416809,620.457458 
	C869.362244,620.965210 870.059265,621.935425 870.348877,622.664062 
	C778.640747,622.637207 687.455383,622.637207 595.272888,622.637207 
	C596.737000,624.598267 597.452576,625.655334 598.265564,626.631287 
	C620.119751,652.867371 641.996033,679.085022 663.843506,705.326721 
	C693.470154,740.912354 723.075989,776.515259 752.177734,812.207153 
	C738.090393,812.303589 724.516235,812.303589 711.000244,812.303589 
	C711.000244,817.409058 711.000244,821.623291 711.000244,826.222290 
	C729.199585,826.222290 747.016602,826.222290 764.970520,826.525940 
	C781.860962,846.932983 798.614563,867.036316 815.662781,887.493286 
	C832.719971,866.733215 849.373047,846.464966 866.494995,826.149963 
	C884.021973,826.103271 901.080017,826.103271 918.154663,826.103271 
	C918.154663,821.208984 918.154663,816.986511 918.154663,812.057251 
	C904.508789,812.057251 891.239563,812.057251 878.130493,811.760193 
	C907.758484,775.763062 937.210022,740.049561 966.699768,704.367615 
	C986.104614,680.888184 1005.564636,657.454285 1025.000000,634.000000 
	C1025.000000,764.303162 1025.000000,894.606262 1025.000000,1024.954712 
	C683.776001,1024.954712 342.552002,1024.954712 1.000000,1024.954712 
	C1.000000,893.973328 1.000000,762.946350 1.281506,631.637512 
	C72.627159,716.642090 143.691315,801.928589 214.967651,887.469727 
	C287.854340,799.115051 360.239410,711.368469 433.456940,622.612671 
	C429.807648,622.612671 427.820831,622.612732 425.834015,622.612732 
	C286.037201,622.612671 146.240387,622.611023 6.443572,622.628540 
	C4.629032,622.628784 2.814522,622.870789 0.999999,623.000000 
M667.137634,581.277527 
	C667.287598,581.156677 667.404663,581.009644 668.033020,580.406494 
	C674.064270,573.501587 678.671692,565.663269 679.984741,556.617920 
	C681.773071,544.299072 683.500122,531.847351 683.634766,519.435059 
	C684.083008,478.111755 683.810852,436.780548 683.800476,395.452393 
	C683.800110,393.836060 683.652893,392.219757 683.566589,390.450195 
	C670.302734,390.450195 657.413818,390.450195 644.087402,390.450195 
	C644.087402,392.737915 644.087524,394.702759 644.087402,396.667572 
	C644.084656,438.828949 644.083740,480.990356 644.077820,523.151733 
	C644.076233,534.037048 643.125610,544.781128 639.004578,555.003418 
	C635.206421,564.424805 628.448608,570.585449 618.580505,573.216614 
	C608.680603,575.856262 598.763367,575.724731 588.994385,572.780212 
	C580.270447,570.150818 573.827820,564.598083 569.983826,556.259766 
	C563.515442,542.228516 563.491760,527.318420 563.654053,511.678589 
	C585.838562,511.678589 607.546509,511.678589 629.276672,511.678589 
	C629.276672,493.129730 629.276672,475.233978 629.276672,456.931702 
	C607.279846,456.931702 585.669434,456.931702 563.422852,456.931702 
	C563.422852,434.481415 563.422852,412.434204 563.422852,390.527069 
	C548.046509,390.527069 533.316284,390.527069 518.107056,390.527069 
	C518.107056,412.836365 518.107056,434.746460 518.107056,456.796631 
	C496.876434,456.796631 476.132965,456.796631 455.211792,456.796631 
	C455.211792,429.147644 455.211792,401.754120 455.211792,373.780731 
	C507.527405,373.780731 559.571472,373.780731 611.532532,373.780731 
	C611.532532,355.316986 611.532532,337.436798 611.532532,319.111694 
	C559.207458,319.111694 507.294037,319.111694 455.172302,319.111694 
	C455.172302,296.582184 455.172302,274.505249 455.172302,251.926422 
	C511.301941,251.926422 567.199402,251.926422 623.307617,251.926422 
	C623.307617,233.382690 623.307617,215.343002 623.307617,197.374329 
	C545.348694,197.374329 467.778717,197.374329 390.275391,197.374329 
	C390.275391,302.283203 390.275391,406.840149 390.275391,511.909180 
	C433.023224,511.909180 475.423859,511.909180 517.630676,511.909180 
	C518.441833,523.031189 518.851257,533.669678 520.068909,544.214844 
	C522.124329,562.015259 529.640259,576.982239 544.836853,588.254211 
	C551.344971,591.868774 557.547363,596.267456 564.420166,598.946472 
	C582.814392,606.116333 602.034668,606.864441 621.429688,604.301880 
	C636.582397,602.299744 650.440369,597.198059 662.229248,586.254761 
	C662.447937,586.008728 662.666687,585.762695 663.299438,585.242615 
	C663.512878,584.994690 663.726257,584.746826 664.343933,584.236389 
	C664.645386,584.071289 664.844360,583.823730 665.333862,583.236267 
	C665.625305,583.070312 665.814880,582.825378 666.311951,582.216309 
	C666.509766,581.955688 666.707581,581.695068 667.137634,581.277527 
M557.919189,686.298035 
	C541.468750,666.499695 525.018311,646.701416 508.270782,626.545532 
	C502.003998,634.126892 496.151245,641.141296 490.370789,648.214783 
	C479.839813,661.101318 469.351746,674.022888 458.077332,687.157410 
	C440.660309,687.157410 423.243317,687.157410 405.682404,687.157410 
	C405.682404,692.451965 405.682404,696.660339 405.682404,701.154724 
	C419.390076,701.154724 432.704620,701.154724 445.891388,701.813232 
	C445.537689,702.372803 445.240143,702.978699 444.822205,703.485291 
	C394.270630,764.756531 343.709259,826.019775 293.157410,887.290771 
	C292.178986,888.476624 291.307281,889.750549 290.190063,891.245239 
	C436.520660,891.245239 582.155334,891.245239 728.434326,891.245239 
	C727.156799,889.514343 726.346497,888.289673 725.412048,887.168457 
	C681.381287,834.333069 637.321899,781.521484 593.316711,728.664734 
	C585.766113,719.595398 578.441528,710.337891 571.958008,701.107666 
	C585.555115,701.107666 599.152161,701.107666 612.805542,701.107666 
	C612.805542,696.310974 612.805542,692.086304 612.805542,687.565613 
	C597.827026,687.565613 583.191528,687.604370 568.556580,687.537170 
	C565.085388,687.521240 561.615723,687.149902 557.919189,686.298035 
M320.498657,457.056793 
	C268.237152,457.056793 215.975616,457.056793 163.645264,457.056793 
	C163.645264,429.058899 163.645264,401.773590 163.645264,373.902527 
	C215.919907,373.902527 267.973328,373.902527 320.083954,373.902527 
	C320.083954,355.402008 320.083954,337.490387 320.083954,319.105957 
	C267.790466,319.105957 215.858383,319.105957 163.690704,319.105957 
	C163.690704,296.561340 163.690704,274.493805 163.690704,251.886139 
	C219.863724,251.886139 275.769135,251.886139 331.696869,251.886139 
	C331.696869,233.309860 331.696869,215.277069 331.696869,197.027786 
	C329.466309,197.027786 327.645294,197.027786 325.824249,197.027786 
	C251.993942,197.027786 178.163528,197.080994 104.333618,196.910202 
	C99.318077,196.898590 97.945526,198.036377 97.954124,203.197784 
	C98.121880,304.026703 98.078720,404.855927 98.078712,505.685120 
	C98.078712,507.475128 98.078712,509.265137 98.078712,511.409424 
	C178.305313,511.409424 258.013763,511.409424 337.747498,511.409424 
	C337.747498,493.221680 337.747498,475.320312 337.747498,457.056793 
	C332.108093,457.056793 326.803040,457.056793 320.498657,457.056793 
z"/>
<path fill="#1D6DC6" opacity="1.000000" stroke="none" 
	d="
M0.999999,623.444153 
	C2.814522,622.870789 4.629032,622.628784 6.443572,622.628540 
	C146.240387,622.611023 286.037201,622.612671 425.834015,622.612732 
	C427.820831,622.612732 429.807648,622.612671 433.456940,622.612671 
	C360.239410,711.368469 287.854340,799.115051 214.967651,887.469727 
	C143.691315,801.928589 72.627159,716.642090 1.281506,631.177795 
	C1.000000,628.629456 1.000000,626.258850 0.999999,623.444153 
M217.972839,712.640686 
	C230.064102,733.369690 223.186661,752.231995 212.384399,771.134155 
	C217.408524,768.979431 222.303680,766.693726 226.769745,763.755737 
	C251.873352,747.241943 257.249817,720.430664 240.033188,695.885437 
	C225.782883,675.569214 205.899078,665.882996 181.032150,666.446289 
	C160.318176,666.915466 142.426865,673.437195 129.850723,690.766602 
	C116.822464,708.718994 113.063583,729.562683 112.091568,751.108215 
	C112.015915,752.785156 113.401306,754.783569 114.598434,756.224976 
	C147.067215,795.319519 179.598694,834.362000 212.129883,873.404602 
	C212.947754,874.386169 213.880936,875.271606 215.102158,876.563477 
	C251.261826,832.729553 287.164520,789.207153 323.067200,745.684753 
	C322.780884,745.378357 322.494598,745.071960 322.208282,744.765564 
	C320.903412,745.671509 319.570831,746.540344 318.298248,747.489502 
	C311.089630,752.866821 304.002625,758.414185 296.675201,763.623718 
	C277.908447,776.966125 258.481842,789.129089 236.335297,796.244263 
	C211.154480,804.334106 187.476425,802.921753 166.252655,785.378723 
	C146.823425,769.318909 139.776474,743.925598 148.928146,722.609680 
	C161.240250,693.932556 199.085037,688.106750 217.972839,712.640686 
z"/>
<path fill="#C94844" opacity="1.000000" stroke="none" 
	d="
M1025.000000,633.541870 
	C1005.564636,657.454285 986.104614,680.888184 966.699768,704.367615 
	C937.210022,740.049561 907.758484,775.763062 877.664551,811.785095 
	C835.589172,812.108276 794.140015,812.109497 752.690796,812.110718 
	C723.075989,776.515259 693.470154,740.912354 663.843506,705.326721 
	C641.996033,679.085022 620.119751,652.867371 598.265564,626.631287 
	C597.452576,625.655334 596.737000,624.598267 595.272888,622.637207 
	C687.455383,622.637207 778.640747,622.637207 870.643433,622.698608 
	C872.441895,622.892212 873.477356,622.865662 874.396179,623.179932 
	C892.336670,629.316406 910.263489,635.492493 927.985229,641.960876 
	C924.517334,646.234924 921.257263,650.208496 917.923523,654.271912 
	C925.840637,665.914368 933.599243,677.323792 942.123901,689.859741 
	C942.123901,678.648010 942.245361,668.992249 942.056885,659.342590 
	C941.992554,656.048828 942.901855,653.786865 945.567993,651.707153 
	C953.837463,645.256714 961.903381,638.544861 970.022461,631.902893 
	C970.801941,631.265259 971.401855,630.408081 972.614502,629.067566 
	C962.734802,629.067566 953.745117,629.067566 944.913940,628.757935 
	C947.173889,626.540955 949.275330,624.633667 951.376770,622.726318 
	C975.617920,622.720581 999.859070,622.714844 1024.550049,622.854553 
	C1025.000000,626.361267 1025.000000,629.722595 1025.000000,633.541870 
M839.227966,658.716492 
	C851.281067,649.195618 863.334106,639.674744 876.496582,629.277527 
	C855.143433,629.277527 835.362000,629.210571 815.582947,629.395752 
	C813.872620,629.411743 811.914917,630.799438 810.517090,632.048096 
	C797.592957,643.593506 784.756775,655.237488 771.919861,666.880188 
	C769.142151,669.399597 766.464172,672.028992 763.566345,674.772339 
	C764.762512,675.840149 765.481567,676.503967 766.223389,677.141174 
	C779.494141,688.540405 792.802917,699.895935 805.986145,711.395508 
	C807.316162,712.555664 808.765442,714.629761 808.680298,716.199585 
	C807.806274,732.327026 806.608765,748.436584 805.538818,764.553711 
	C804.829163,775.242981 804.180359,785.936340 803.504272,796.627930 
	C803.832336,796.725830 804.160400,796.823792 804.488464,796.921753 
	C819.688965,769.173645 834.889465,741.425598 850.065979,713.721313 
	C838.272522,701.747070 826.720642,690.018066 814.861450,677.977051 
	C822.782837,671.695374 830.713257,665.406616 839.227966,658.716492 
M699.462036,629.254211 
	C690.676819,629.254211 681.891663,629.254211 671.884399,629.254211 
	C680.401123,636.883728 687.885376,643.453064 695.166626,650.240234 
	C696.424194,651.412415 697.511169,653.519836 697.483948,655.175720 
	C697.405151,659.976501 696.662903,664.762939 696.285767,669.563232 
	C695.791504,675.854126 695.397522,682.152893 694.863037,689.850891 
	C705.256836,677.209290 714.695312,665.843506 723.918091,654.305237 
	C724.691162,653.338013 724.579773,650.898560 723.906738,649.680420 
	C721.662903,645.618835 718.490784,642.025085 716.566711,637.841736 
	C713.260193,630.652588 708.133911,627.774963 699.462036,629.254211 
z"/>
<path fill="#4CA69E" opacity="1.000000" stroke="none" 
	d="
M571.012573,701.167236 
	C578.441528,710.337891 585.766113,719.595398 593.316711,728.664734 
	C637.321899,781.521484 681.381287,834.333069 725.412048,887.168457 
	C726.346497,888.289673 727.156799,889.514343 728.434326,891.245239 
	C582.155334,891.245239 436.520660,891.245239 290.190063,891.245239 
	C291.307281,889.750549 292.178986,888.476624 293.157410,887.290771 
	C343.709259,826.019775 394.270630,764.756531 444.822205,703.485291 
	C445.240143,702.978699 445.537689,702.372803 446.413330,701.428101 
	C457.714783,701.127136 468.494263,701.211243 479.055115,701.555542 
	C466.550171,707.947632 454.198303,713.953674 442.024109,720.300598 
	C439.012085,721.870850 436.576813,724.547424 433.876434,726.715515 
	C434.176941,727.120117 434.477478,727.524780 434.777985,727.929443 
	C450.405884,723.706604 464.866516,716.841736 478.494385,708.165710 
	C481.815430,706.051453 484.852509,703.491150 488.485352,701.090332 
	C508.100128,701.142761 527.249756,701.240784 546.253357,701.642700 
	C540.014099,712.019287 530.325806,716.603088 518.890137,718.609741 
	C520.379517,720.937561 521.344910,722.446411 522.471619,724.207336 
	C517.265808,728.565857 512.493408,733.189758 507.115723,736.947266 
	C490.402679,748.624878 472.206390,757.569702 453.425751,765.429932 
	C447.133301,768.063477 440.989929,769.770203 434.101532,768.364563 
	C431.260773,767.784790 428.203033,768.268494 425.021301,768.268494 
	C425.366302,770.187073 425.679382,771.928162 426.124451,774.403259 
	C414.119141,777.666321 402.354218,781.054077 390.476624,783.985474 
	C386.518372,784.962402 384.008728,786.881714 381.975983,791.605225 
	C397.793488,787.822510 412.750488,784.245605 427.991791,780.600708 
	C428.534058,781.818848 429.176208,783.261414 429.991058,785.091919 
	C434.389709,781.824341 438.266174,778.372437 442.669434,775.834351 
	C447.096252,773.282715 452.019867,771.574036 456.773376,769.611328 
	C481.810303,759.273254 505.319977,746.296143 526.479675,729.098572 
	C527.750366,730.457214 528.848022,731.630798 529.671692,732.511475 
	C537.506531,721.929810 545.182190,711.563171 553.331787,701.142822 
	C559.541382,701.115112 565.276978,701.141174 571.012573,701.167236 
M340.502625,868.987915 
	C334.449249,873.671021 328.395874,878.354065 322.342499,883.037170 
	C322.776428,883.796814 323.210358,884.556458 323.644318,885.316162 
	C326.151031,884.366211 328.889282,883.789185 331.124176,882.401489 
	C340.537445,876.556763 349.800415,870.470032 359.246399,864.389465 
	C360.937134,866.799744 362.042572,868.375549 363.354767,870.246155 
	C366.421204,866.723267 369.131470,863.359314 372.126282,860.271301 
	C373.700378,858.648132 375.578827,856.930969 377.648743,856.236267 
	C407.087219,846.356995 436.582031,836.645569 466.203400,826.847290 
	C467.112885,828.741272 467.858765,830.294556 468.774139,832.200806 
	C473.081665,828.469910 476.645477,824.603760 480.935516,821.882690 
	C485.380157,819.063599 490.532806,817.363220 495.369049,815.158813 
	C511.791565,807.673096 527.412537,798.801392 541.451721,787.413635 
	C548.651794,781.573425 555.362488,775.129883 562.377380,768.884949 
	C563.650330,769.583191 565.007324,770.327515 565.412109,770.549561 
	C570.785950,761.183594 575.953430,752.158264 581.142578,743.145386 
	C582.637207,740.549377 584.106384,737.931824 585.744690,735.427185 
	C587.793091,732.295349 586.848145,730.338135 583.160339,728.619324 
	C577.143005,743.017090 568.239014,754.553894 552.350403,759.328430 
	C552.514771,759.829590 552.679138,760.330750 552.843506,760.831909 
	C554.363159,761.839417 555.882874,762.846924 557.548401,763.951111 
	C555.683655,766.174072 554.332336,767.846008 552.917480,769.462219 
	C540.202026,783.987305 524.223267,794.140686 507.540436,803.365112 
	C494.037842,810.831238 480.371002,817.613586 464.173706,815.166565 
	C463.721497,815.098267 463.221771,815.344421 462.493256,815.496338 
	C463.016663,817.433105 463.521484,819.301208 464.266693,822.058960 
	C427.796234,833.027405 392.620728,847.541992 354.973724,855.129883 
	C355.504395,856.466980 356.091095,857.945251 356.679108,859.426880 
	C351.411896,862.529724 346.261475,865.563782 340.502625,868.987915 
M423.480896,884.811584 
	C427.417999,884.299438 431.458466,884.187317 435.273041,883.201172 
	C447.441101,880.055542 459.525269,876.585205 471.727020,873.216797 
	C472.468445,874.789734 473.130463,876.194214 473.891296,877.808350 
	C478.328522,874.398560 482.117676,870.757385 486.555786,868.277832 
	C491.154541,865.708557 496.394714,864.296204 501.332672,862.323547 
	C518.071106,855.636719 534.241516,847.755981 548.813721,837.114746 
	C559.119873,829.588745 568.745911,821.131287 578.929016,812.884399 
	C579.832703,813.588989 581.208374,814.661621 581.816345,815.135620 
	C588.219788,804.205139 594.566528,793.383423 600.900635,782.554382 
	C604.175293,776.955933 607.335754,771.288086 610.726440,765.761230 
	C612.604736,762.699463 612.147339,760.593201 608.691345,758.822632 
	C605.859497,763.816284 603.168091,768.742432 600.308899,773.569153 
	C593.005981,785.897522 586.024658,798.575317 570.884949,803.122559 
	C570.642822,803.195374 570.499207,803.596008 570.103394,804.113220 
	C571.340637,805.505798 572.614380,806.939514 573.943054,808.434998 
	C573.122437,809.327576 572.456360,810.065613 571.775940,810.790039 
	C552.479614,831.335876 528.679443,844.994446 503.114624,856.091980 
	C494.712555,859.739319 486.349030,862.289185 477.082458,861.070007 
	C474.319763,860.706482 471.468781,861.013794 468.360229,861.013794 
	C468.813141,863.112854 469.210083,864.952454 469.743408,867.424194 
	C451.450165,872.872864 433.422821,878.242371 415.395508,883.611816 
	C415.408264,884.011658 415.421021,884.411499 415.433777,884.811340 
	C417.810822,884.811340 420.187897,884.811340 423.480896,884.811584 
M566.737976,880.278137 
	C564.381287,881.538818 562.024597,882.799561 559.667908,884.060303 
	C559.971375,884.613342 560.274841,885.166382 560.578247,885.719421 
	C583.372620,881.870361 600.795166,867.220825 619.405945,855.082153 
	C620.708069,856.207520 621.919861,857.254822 622.470764,857.730957 
	C629.992432,847.319031 637.328857,837.118652 644.719299,826.957642 
	C647.359802,823.327332 650.062805,819.737488 652.865295,816.231506 
	C655.068726,813.474915 654.470764,811.520813 651.456909,809.856750 
	C645.224182,817.703003 638.978271,825.446960 632.873108,833.300354 
	C629.709900,837.369385 625.932190,840.301086 620.872131,841.673767 
	C617.777039,842.513367 614.825928,843.883606 611.512268,845.127319 
	C612.980530,847.121826 614.035706,848.555176 615.218262,850.161499 
	C601.116211,863.420959 584.121155,871.467773 566.737976,880.278137 
M646.372681,884.814575 
	C650.669800,885.496704 654.015259,883.723328 657.215332,881.022217 
	C667.280701,872.526306 675.033813,862.375854 680.437683,850.328308 
	C682.046814,846.740784 682.123413,844.208679 678.734131,842.425781 
	C675.164490,848.880859 672.508911,855.966492 667.921021,861.429321 
	C661.488586,869.088501 653.601807,875.523071 646.399475,882.545410 
	C645.902161,883.030212 645.921997,884.045349 646.372681,884.814575 
z"/>
<path fill="#626365" opacity="1.000000" stroke="none" 
	d="
M544.410400,587.786316 
	C529.640259,576.982239 522.124329,562.015259 520.068909,544.214844 
	C518.851257,533.669678 518.441833,523.031189 517.630676,511.909180 
	C475.423859,511.909180 433.023224,511.909180 390.275391,511.909180 
	C390.275391,406.840149 390.275391,302.283203 390.275391,197.374329 
	C467.778717,197.374329 545.348694,197.374329 623.307617,197.374329 
	C623.307617,215.343002 623.307617,233.382690 623.307617,251.926422 
	C567.199402,251.926422 511.301941,251.926422 455.172302,251.926422 
	C455.172302,274.505249 455.172302,296.582184 455.172302,319.111694 
	C507.294037,319.111694 559.207458,319.111694 611.532532,319.111694 
	C611.532532,337.436798 611.532532,355.316986 611.532532,373.780731 
	C559.571472,373.780731 507.527405,373.780731 455.211792,373.780731 
	C455.211792,401.754120 455.211792,429.147644 455.211792,456.796631 
	C476.132965,456.796631 496.876434,456.796631 518.107056,456.796631 
	C518.107056,434.746460 518.107056,412.836365 518.107056,390.527069 
	C533.316284,390.527069 548.046509,390.527069 563.422852,390.527069 
	C563.422852,412.434204 563.422852,434.481415 563.422852,456.931702 
	C585.669434,456.931702 607.279846,456.931702 629.276672,456.931702 
	C629.276672,475.233978 629.276672,493.129730 629.276672,511.678589 
	C607.546509,511.678589 585.838562,511.678589 563.654053,511.678589 
	C563.491760,527.318420 563.515442,542.228516 569.983826,556.259766 
	C573.827820,564.598083 580.270447,570.150818 588.994385,572.780212 
	C598.763367,575.724731 608.680603,575.856262 618.580505,573.216614 
	C628.448608,570.585449 635.206421,564.424805 639.004578,555.003418 
	C643.125610,544.781128 644.076233,534.037048 644.077820,523.151733 
	C644.083740,480.990356 644.084656,438.828949 644.087402,396.667572 
	C644.087524,394.702759 644.087402,392.737915 644.087402,390.450195 
	C657.413818,390.450195 670.302734,390.450195 683.566589,390.450195 
	C683.652893,392.219757 683.800110,393.836060 683.800476,395.452393 
	C683.810852,436.780548 684.083008,478.111755 683.634766,519.435059 
	C683.500122,531.847351 681.773071,544.299072 679.984741,556.617920 
	C678.671692,565.663269 674.064270,573.501587 667.604492,580.350342 
	C667.043579,580.133118 666.911133,579.971924 666.884277,579.487427 
	C672.677795,571.846985 677.317932,563.887085 678.748352,554.675903 
	C680.273560,544.854309 681.734741,534.903076 681.813110,524.997314 
	C682.150818,482.338013 681.973633,439.674652 681.967041,397.012756 
	C681.966797,395.427185 681.791870,393.841614 681.707397,392.409302 
	C669.509888,392.409302 657.935547,392.409302 645.994751,392.409302 
	C645.994751,394.787354 645.994812,396.764709 645.994751,398.742065 
	C645.993408,440.070770 646.091431,481.399963 645.898926,522.727783 
	C645.864258,530.163757 645.212524,537.703613 643.833679,545.004456 
	C640.910706,560.481689 633.385620,572.416687 616.561646,575.583191 
	C611.697815,576.498657 606.650635,576.958984 601.706726,576.838379 
	C583.172974,576.386292 570.185730,566.819946 565.561157,549.614380 
	C563.553711,542.145569 562.191284,534.260620 562.129639,526.551941 
	C561.787415,483.726074 561.934875,440.896271 561.914856,398.067841 
	C561.914001,396.152954 561.914795,394.238037 561.914795,392.440247 
	C547.483643,392.440247 533.922852,392.440247 520.289795,392.440247 
	C520.184509,393.683838 520.054138,394.503296 520.054382,395.322754 
	C520.065002,439.484375 519.753296,483.650482 520.348816,527.804382 
	C520.492310,538.442505 523.009521,549.197266 525.585266,559.613953 
	C528.409790,571.036743 536.927124,578.954956 544.969116,587.034729 
	C544.649475,587.445190 544.529968,587.615723 544.410400,587.786316 
M532.500000,198.882889 
	C485.741547,198.882889 438.983124,198.882889 392.229706,198.882889 
	C392.229706,302.987701 392.229706,406.341980 392.229706,509.622864 
	C434.425903,509.622864 476.160126,509.622864 517.922913,509.622864 
	C517.922913,492.629608 517.922913,476.045563 517.922913,458.816986 
	C496.214111,458.816986 474.829803,458.816986 453.452850,458.816986 
	C453.452850,429.604767 453.452850,401.042725 453.452850,371.979065 
	C505.733276,371.979065 557.644348,371.979065 609.692383,371.979065 
	C609.692383,354.768585 609.692383,338.065552 609.692383,320.859192 
	C557.390076,320.859192 505.480377,320.859192 453.365112,320.859192 
	C453.365112,297.114655 453.365112,273.877930 453.365112,249.919342 
	C509.662689,249.919342 565.680908,249.919342 621.675293,249.919342 
	C621.675293,232.603500 621.675293,216.012177 621.675293,198.882706 
	C592.071228,198.882706 562.785583,198.882706 532.500000,198.882889 
M619.447754,458.905212 
	C601.017090,458.905212 582.586365,458.905212 564.115051,458.905212 
	C564.115051,476.300781 564.115051,492.981049 564.115051,509.584167 
	C585.621765,509.584167 606.658264,509.584167 627.648682,509.584167 
	C627.648682,492.553070 627.648682,475.973846 627.648682,458.905060 
	C625.016052,458.905060 622.721436,458.905060 619.447754,458.905212 
z"/>
<path fill="#636162" opacity="1.000000" stroke="none" 
	d="
M320.998322,457.056793 
	C326.803040,457.056793 332.108093,457.056793 337.747498,457.056793 
	C337.747498,475.320312 337.747498,493.221680 337.747498,511.409424 
	C258.013763,511.409424 178.305313,511.409424 98.078712,511.409424 
	C98.078712,509.265137 98.078712,507.475128 98.078712,505.685120 
	C98.078720,404.855927 98.121880,304.026703 97.954124,203.197784 
	C97.945526,198.036377 99.318077,196.898590 104.333618,196.910202 
	C178.163528,197.080994 251.993942,197.027786 325.824249,197.027786 
	C327.645294,197.027786 329.466309,197.027786 331.696869,197.027786 
	C331.696869,215.277069 331.696869,233.309860 331.696869,251.886139 
	C275.769135,251.886139 219.863724,251.886139 163.690704,251.886139 
	C163.690704,274.493805 163.690704,296.561340 163.690704,319.105957 
	C215.858383,319.105957 267.790466,319.105957 320.083954,319.105957 
	C320.083954,337.490387 320.083954,355.402008 320.083954,373.902527 
	C267.973328,373.902527 215.919907,373.902527 163.645264,373.902527 
	C163.645264,401.773590 163.645264,429.058899 163.645264,457.056793 
	C215.975616,457.056793 268.237152,457.056793 320.998322,457.056793 
M329.069489,198.918335 
	C252.848740,198.918335 176.627991,198.918335 100.033539,198.918335 
	C100.033539,201.374207 100.033539,203.018845 100.033539,204.663467 
	C100.033546,304.467285 100.069138,404.271149 99.927124,504.074768 
	C99.920120,508.998962 101.411942,510.131439 106.132607,510.122528 
	C180.943558,509.981506 255.754837,510.025055 330.566040,510.013153 
	C332.319855,510.012878 334.073669,509.860474 335.743896,509.782898 
	C335.743896,492.571411 335.743896,475.984894 335.743896,458.777527 
	C277.552887,458.777527 219.694382,458.777527 161.685699,458.777527 
	C161.685699,429.597595 161.685699,401.045197 161.685699,371.940918 
	C213.982437,371.940918 265.882294,371.940918 317.818054,371.940918 
	C317.818054,354.699463 317.818054,338.016296 317.818054,320.737244 
	C265.476318,320.737244 213.605118,320.737244 161.693451,320.737244 
	C161.693451,296.906250 161.693451,273.681610 161.693451,250.084122 
	C164.078247,250.084122 166.057968,250.085251 168.037674,250.083984 
	C222.020493,250.049393 276.003296,250.014557 330.612762,249.425049 
	C330.728607,233.174347 330.853973,216.923676 330.919525,200.672760 
	C330.921753,200.121124 330.322266,199.567047 329.069489,198.918335 
z"/>
<path fill="#C94844" opacity="1.000000" stroke="none" 
	d="
M866.026123,826.196655 
	C849.373047,846.464966 832.719971,866.733215 815.662781,887.493286 
	C798.614563,867.036316 781.860962,846.932983 765.444092,826.462280 
	C799.195984,826.128906 832.611023,826.162781 866.026123,826.196655 
z"/>
<path fill="#51A59D" opacity="1.000000" stroke="none" 
	d="
M458.845734,686.929871 
	C469.351746,674.022888 479.839813,661.101318 490.370789,648.214783 
	C496.151245,641.141296 502.003998,634.126892 508.270782,626.545532 
	C525.018311,646.701416 541.468750,666.499695 557.707886,686.895142 
	C541.070312,687.580933 524.643982,687.675049 508.217560,687.727783 
	C507.790741,687.729187 507.362457,687.279419 507.091675,686.739136 
	C513.775513,679.374390 520.322510,672.328674 526.818848,665.236572 
	C529.133972,662.709106 528.747498,660.546997 526.100586,659.121338 
	C518.574158,667.051147 511.168884,674.847778 503.771118,682.651611 
	C502.213989,684.294189 500.684265,685.962708 498.675781,687.723206 
	C486.486816,687.842834 474.763794,687.890320 463.041260,687.832397 
	C461.641296,687.825500 460.244171,687.244690 458.845734,686.929871 
z"/>
<path fill="#5A5858" opacity="1.000000" stroke="none" 
	d="
M866.494995,826.149963 
	C832.611023,826.162781 799.195984,826.128906 765.307251,826.158691 
	C747.016602,826.222290 729.199585,826.222290 711.000244,826.222290 
	C711.000244,821.623291 711.000244,817.409058 711.000244,812.303589 
	C724.516235,812.303589 738.090393,812.303589 752.177734,812.207153 
	C794.140015,812.109497 835.589172,812.108276 877.504333,812.082153 
	C891.239563,812.057251 904.508789,812.057251 918.154663,812.057251 
	C918.154663,816.986511 918.154663,821.208984 918.154663,826.103271 
	C901.080017,826.103271 884.021973,826.103271 866.494995,826.149963 
z"/>
<path fill="#565656" opacity="1.000000" stroke="none" 
	d="
M506.934875,687.039978 
	C507.362457,687.279419 507.790741,687.729187 508.217560,687.727783 
	C524.643982,687.675049 541.070312,687.580933 557.821045,687.217163 
	C561.615723,687.149902 565.085388,687.521240 568.556580,687.537170 
	C583.191528,687.604370 597.827026,687.565613 612.805542,687.565613 
	C612.805542,692.086304 612.805542,696.310974 612.805542,701.107666 
	C599.152161,701.107666 585.555115,701.107666 571.485291,701.137451 
	C565.276978,701.141174 559.541382,701.115112 552.922424,701.102173 
	C550.159180,701.189819 548.279236,701.264282 546.399353,701.338806 
	C527.249756,701.240784 508.100128,701.142761 488.036835,701.064331 
	C484.506683,701.154419 481.890198,701.224915 479.273743,701.295349 
	C468.494263,701.211243 457.714783,701.127136 446.477234,701.098877 
	C432.704620,701.154724 419.390076,701.154724 405.682404,701.154724 
	C405.682404,696.660339 405.682404,692.451965 405.682404,687.157410 
	C423.243317,687.157410 440.660309,687.157410 458.461548,687.043640 
	C460.244171,687.244690 461.641296,687.825500 463.041260,687.832397 
	C474.763794,687.890320 486.486816,687.842834 499.083191,687.710815 
	C502.282745,687.409729 504.608795,687.224854 506.934875,687.039978 
z"/>
<path fill="#5D636A" opacity="1.000000" stroke="none" 
	d="
M951.580566,622.430664 
	C949.275330,624.633667 947.173889,626.540955 944.661011,628.937866 
	C940.603882,632.909912 937.077454,636.532471 933.245300,639.796143 
	C931.962463,640.888733 929.899475,641.065308 928.193115,641.660522 
	C910.263489,635.492493 892.336670,629.316406 874.396179,623.179932 
	C873.477356,622.865662 872.441895,622.892212 871.166138,622.725525 
	C870.059265,621.935425 869.362244,620.965210 868.416809,620.457458 
	C859.368164,615.597107 850.413635,610.523376 841.118103,606.183289 
	C838.234985,604.837219 834.379028,605.215515 830.993286,605.365356 
	C813.021423,606.160339 795.416321,604.298462 778.939514,596.797852 
	C771.468018,593.396667 764.719238,588.407532 757.674438,583.687439 
	C757.863953,583.085144 758.021667,582.934021 758.501465,582.890503 
	C758.974976,583.067444 759.145813,583.111328 759.275269,583.209656 
	C780.550720,599.371826 804.765320,604.941833 831.037170,603.203613 
	C835.647034,602.898621 839.982300,602.902100 844.391602,605.603821 
	C869.854797,621.206543 897.755737,630.971680 926.376831,638.866577 
	C927.979248,639.308594 930.526978,639.718445 931.402649,638.870667 
	C939.609314,630.924744 947.547058,622.701050 956.117188,613.994202 
	C927.843994,610.322388 900.789978,604.438354 874.347046,595.075806 
	C874.820862,594.392212 874.885010,594.201050 875.015686,594.127075 
	C875.882996,593.635986 876.764282,593.169556 877.641541,592.696106 
	C901.641663,579.743591 917.924377,560.564575 925.571350,534.136353 
	C930.272156,517.890137 930.751648,501.331543 929.979248,484.688171 
	C929.136230,466.523285 924.970947,449.138763 915.264954,433.517609 
	C911.515564,427.483246 906.979248,421.937836 903.000610,415.912598 
	C903.303345,415.465088 903.406860,415.274628 903.510376,415.084198 
	C917.383606,428.945587 925.419739,445.882111 929.261841,464.876526 
	C934.021606,488.407349 933.749878,511.876648 927.167175,535.080444 
	C920.156372,559.792969 905.329346,578.524597 883.310852,591.639648 
	C882.169739,592.319397 881.006226,592.963379 879.887573,593.677734 
	C879.645386,593.832336 879.551270,594.218811 878.972717,595.215576 
	C892.470398,598.792175 905.648926,602.766235 919.054871,605.701111 
	C932.463257,608.636353 946.099182,610.532410 960.086609,612.962463 
	C957.231934,616.116333 954.508118,619.125671 951.580566,622.430664 
z"/>
<path fill="#5D636A" opacity="1.000000" stroke="none" 
	d="
M757.447266,583.437134 
	C738.715149,568.962097 727.541260,549.732361 722.769714,526.874756 
	C716.392273,496.324127 717.711121,466.319122 731.916321,437.911957 
	C735.441528,430.862396 740.722595,424.690918 745.679138,418.136169 
	C746.286011,418.275116 746.410278,418.393768 746.379639,418.802063 
	C745.723450,419.942505 745.340271,420.896210 744.702759,421.628387 
	C737.058960,430.407898 731.780396,440.545044 728.036072,451.454407 
	C721.128967,471.579010 719.664246,492.335052 722.180969,513.323914 
	C724.009827,528.575989 727.561890,543.611938 736.352112,556.424927 
	C742.779114,565.793152 750.844421,574.037537 758.179443,582.782898 
	C758.021667,582.934021 757.863953,583.085144 757.447266,583.437134 
z"/>
<path fill="#5D636A" opacity="1.000000" stroke="none" 
	d="
M754.210876,409.355560 
	C768.757446,396.196503 786.141174,389.224396 805.293030,386.528168 
	C830.132202,383.031250 854.538330,384.574524 877.320007,396.000427 
	C885.238525,399.971832 892.161499,405.928070 899.437988,411.403015 
	C899.165466,411.954193 898.994080,412.080170 898.504028,412.097870 
	C891.059448,407.154480 884.431213,401.243530 876.719055,397.675781 
	C847.726196,384.263123 817.740356,383.763031 787.338318,392.672577 
	C775.325562,396.193024 765.092285,402.894196 754.944763,409.986694 
	C754.546875,409.624969 754.378845,409.490265 754.210876,409.355560 
z"/>
<path fill="#626365" opacity="1.000000" stroke="none" 
	d="
M661.817810,586.536804 
	C650.440369,597.198059 636.582397,602.299744 621.429688,604.301880 
	C602.034668,606.864441 582.814392,606.116333 564.420166,598.946472 
	C557.547363,596.267456 551.344971,591.868774 544.623657,588.020264 
	C544.529968,587.615723 544.649475,587.445190 545.294434,587.137024 
	C547.610046,588.200500 549.336792,589.511536 551.200012,590.586060 
	C577.658203,605.844910 605.712646,606.810730 634.588623,599.657715 
	C644.429993,597.219849 652.804688,591.791870 661.056641,585.989746 
	C661.468994,586.307617 661.643433,586.422241 661.817810,586.536804 
z"/>
<path fill="#5D636A" opacity="1.000000" stroke="none" 
	d="
M745.974976,417.978821 
	C748.418762,415.101990 751.049316,412.402863 753.945312,409.529663 
	C754.378845,409.490265 754.546875,409.624969 754.760132,410.256653 
	C752.048340,413.339905 749.291504,415.926147 746.534607,418.512390 
	C746.410278,418.393768 746.286011,418.275116 745.974976,417.978821 
z"/>
<path fill="#626365" opacity="1.000000" stroke="none" 
	d="
M662.885437,585.516663 
	C662.666687,585.762695 662.447937,586.008728 662.023560,586.395752 
	C661.643433,586.422241 661.468994,586.307617 661.185303,585.791260 
	C661.284485,585.142639 661.538147,584.957642 662.087402,585.023071 
	C662.520386,585.313293 662.702881,585.414978 662.885437,585.516663 
z"/>
<path fill="#626365" opacity="1.000000" stroke="none" 
	d="
M663.939697,584.498901 
	C663.726257,584.746826 663.512878,584.994690 663.092407,585.379639 
	C662.702881,585.414978 662.520386,585.313293 662.210510,584.815918 
	C662.289429,584.162598 662.545837,583.972717 663.111328,584.034302 
	C663.560059,584.311584 663.749878,584.405212 663.939697,584.498901 
z"/>
<path fill="#626365" opacity="1.000000" stroke="none" 
	d="
M664.940796,583.493713 
	C664.844360,583.823730 664.645386,584.071289 664.141846,584.367676 
	C663.749878,584.405212 663.560059,584.311584 663.230408,583.824463 
	C663.291260,583.167908 663.545105,582.974548 664.111328,583.033691 
	C664.560669,583.308716 664.750732,583.401245 664.940796,583.493713 
z"/>
<path fill="#626365" opacity="1.000000" stroke="none" 
	d="
M665.902710,582.501526 
	C665.814880,582.825378 665.625305,583.070312 665.137329,583.364990 
	C664.750732,583.401245 664.560669,583.308716 664.230103,582.823608 
	C664.289795,582.167236 664.543152,581.973145 665.100952,582.031372 
	C665.535583,582.309875 665.719177,582.405701 665.902710,582.501526 
z"/>
<path fill="#626365" opacity="1.000000" stroke="none" 
	d="
M666.905396,581.434387 
	C666.707581,581.695068 666.509766,581.955688 666.107300,582.358887 
	C665.719177,582.405701 665.535583,582.309875 665.219421,581.821411 
	C665.286316,581.165161 665.538696,580.970032 666.095093,581.016602 
	C666.532593,581.271362 666.718994,581.352844 666.905396,581.434387 
z"/>
<path fill="#626365" opacity="1.000000" stroke="none" 
	d="
M667.332397,580.565308 
	C667.404663,581.009644 667.287598,581.156677 667.021484,581.355957 
	C666.718994,581.352844 666.532593,581.271362 666.207825,580.808594 
	C666.253540,580.161560 666.489990,579.956055 666.778748,579.810669 
	C666.911133,579.971924 667.043579,580.133118 667.332397,580.565308 
z"/>
<path fill="#5D636A" opacity="1.000000" stroke="none" 
	d="
M902.502991,414.080536 
	C902.829773,414.182983 903.076172,414.383911 903.376282,414.883789 
	C903.406860,415.274628 903.303345,415.465088 902.801086,415.786011 
	C902.151367,415.714355 901.958496,415.466949 902.014160,414.913513 
	C902.303955,414.462097 902.403442,414.271301 902.502991,414.080536 
z"/>
<path fill="#5D636A" opacity="1.000000" stroke="none" 
	d="
M901.504944,413.085236 
	C901.829468,413.186127 902.073975,413.385162 902.370728,413.881470 
	C902.403442,414.271301 902.303955,414.462097 901.809814,414.787964 
	C901.158203,414.721069 900.960693,414.471924 901.013428,413.915649 
	C901.304443,413.465515 901.404663,413.275391 901.504944,413.085236 
z"/>
<path fill="#5D636A" opacity="1.000000" stroke="none" 
	d="
M900.421509,412.070190 
	C900.687378,412.269165 900.953186,412.468109 901.362000,412.876160 
	C901.404663,413.275391 901.304443,413.465515 900.809143,413.790192 
	C900.157166,413.722961 899.959045,413.474304 899.998901,412.917267 
	C900.259216,412.460541 900.340393,412.265350 900.421509,412.070190 
z"/>
<path fill="#5D636A" opacity="1.000000" stroke="none" 
	d="
M899.628662,411.699585 
	C899.920593,411.570984 900.276978,411.885468 900.349243,411.977844 
	C900.340393,412.265350 900.259216,412.460541 899.797485,412.794342 
	C899.163330,412.736145 898.965271,412.493866 898.822754,412.206146 
	C898.994080,412.080170 899.165466,411.954193 899.628662,411.699585 
z"/>
<path fill="#FFFFFF" opacity="0.000000" stroke="none" 
	d="
M217.759247,712.343750 
	C199.085037,688.106750 161.240250,693.932556 148.928146,722.609680 
	C139.776474,743.925598 146.823425,769.318909 166.252655,785.378723 
	C187.476425,802.921753 211.154480,804.334106 236.335297,796.244263 
	C258.481842,789.129089 277.908447,776.966125 296.675201,763.623718 
	C304.002625,758.414185 311.089630,752.866821 318.298248,747.489502 
	C319.570831,746.540344 320.903412,745.671509 322.208282,744.765564 
	C322.494598,745.071960 322.780884,745.378357 323.067200,745.684753 
	C287.164520,789.207153 251.261826,832.729553 215.102158,876.563477 
	C213.880936,875.271606 212.947754,874.386169 212.129883,873.404602 
	C179.598694,834.362000 147.067215,795.319519 114.598434,756.224976 
	C113.401306,754.783569 112.015915,752.785156 112.091568,751.108215 
	C113.063583,729.562683 116.822464,708.718994 129.850723,690.766602 
	C142.426865,673.437195 160.318176,666.915466 181.032150,666.446289 
	C205.899078,665.882996 225.782883,675.569214 240.033188,695.885437 
	C257.249817,720.430664 251.873352,747.241943 226.769745,763.755737 
	C222.303680,766.693726 217.408524,768.979431 212.384399,771.134155 
	C223.186661,752.231995 230.064102,733.369690 217.759247,712.343750 
z"/>
<path fill="#FFFFFF" opacity="0.000000" stroke="none" 
	d="
M838.935791,658.917114 
	C830.713257,665.406616 822.782837,671.695374 814.861450,677.977051 
	C826.720642,690.018066 838.272522,701.747070 850.065979,713.721313 
	C834.889465,741.425598 819.688965,769.173645 804.488464,796.921753 
	C804.160400,796.823792 803.832336,796.725830 803.504272,796.627930 
	C804.180359,785.936340 804.829163,775.242981 805.538818,764.553711 
	C806.608765,748.436584 807.806274,732.327026 808.680298,716.199585 
	C808.765442,714.629761 807.316162,712.555664 805.986145,711.395508 
	C792.802917,699.895935 779.494141,688.540405 766.223389,677.141174 
	C765.481567,676.503967 764.762512,675.840149 763.566345,674.772339 
	C766.464172,672.028992 769.142151,669.399597 771.919861,666.880188 
	C784.756775,655.237488 797.592957,643.593506 810.517090,632.048096 
	C811.914917,630.799438 813.872620,629.411743 815.582947,629.395752 
	C835.362000,629.210571 855.143433,629.277527 876.496582,629.277527 
	C863.334106,639.674744 851.281067,649.195618 838.935791,658.917114 
z"/>
<path fill="FFFFFF" opacity="0.000000" stroke="none" 
	d="
M699.953674,629.254272 
	C708.133911,627.774963 713.260193,630.652588 716.566711,637.841736 
	C718.490784,642.025085 721.662903,645.618835 723.906738,649.680420 
	C724.579773,650.898560 724.691162,653.338013 723.918091,654.305237 
	C714.695312,665.843506 705.256836,677.209290 694.863037,689.850891 
	C695.397522,682.152893 695.791504,675.854126 696.285767,669.563232 
	C696.662903,664.762939 697.405151,659.976501 697.483948,655.175720 
	C697.511169,653.519836 696.424194,651.412415 695.166626,650.240234 
	C687.885376,643.453064 680.401123,636.883728 671.884399,629.254211 
	C681.891663,629.254211 690.676819,629.254211 699.953674,629.254272 
z"/>
<path fill="#FFFFFF" opacity="0.000000" stroke="none" 
	d="
M927.985229,641.960938 
	C929.899475,641.065308 931.962463,640.888733 933.245300,639.796143 
	C937.077454,636.532471 940.603882,632.909912 944.502563,629.247559 
	C953.745117,629.067566 962.734802,629.067566 972.614502,629.067566 
	C971.401855,630.408081 970.801941,631.265259 970.022461,631.902893 
	C961.903381,638.544861 953.837463,645.256714 945.567993,651.707153 
	C942.901855,653.786865 941.992554,656.048828 942.056885,659.342590 
	C942.245361,668.992249 942.123901,678.648010 942.123901,689.859741 
	C933.599243,677.323792 925.840637,665.914368 917.923523,654.271912 
	C921.257263,650.208496 924.517334,646.234924 927.985229,641.960938 
z"/>
<path fill="#FFFFFF" opacity="0000000" stroke="none" 
	d="
M340.806824,868.792847 
	C346.261475,865.563782 351.411896,862.529724 356.679108,859.426880 
	C356.091095,857.945251 355.504395,856.466980 354.973724,855.129883 
	C392.620728,847.541992 427.796234,833.027405 464.266693,822.058960 
	C463.521484,819.301208 463.016663,817.433105 462.493256,815.496338 
	C463.221771,815.344421 463.721497,815.098267 464.173706,815.166565 
	C480.371002,817.613586 494.037842,810.831238 507.540436,803.365112 
	C524.223267,794.140686 540.202026,783.987305 552.917480,769.462219 
	C554.332336,767.846008 555.683655,766.174072 557.548401,763.951111 
	C555.882874,762.846924 554.363159,761.839417 552.843506,760.831909 
	C552.679138,760.330750 552.514771,759.829590 552.350403,759.328430 
	C568.239014,754.553894 577.143005,743.017090 583.160339,728.619324 
	C586.848145,730.338135 587.793091,732.295349 585.744690,735.427185 
	C584.106384,737.931824 582.637207,740.549377 581.142578,743.145386 
	C575.953430,752.158264 570.785950,761.183594 565.412109,770.549561 
	C565.007324,770.327515 563.650330,769.583191 562.377380,768.884949 
	C555.362488,775.129883 548.651794,781.573425 541.451721,787.413635 
	C527.412537,798.801392 511.791565,807.673096 495.369049,815.158813 
	C490.532806,817.363220 485.380157,819.063599 480.935516,821.882690 
	C476.645477,824.603760 473.081665,828.469910 468.774139,832.200806 
	C467.858765,830.294556 467.112885,828.741272 466.203400,826.847290 
	C436.582031,836.645569 407.087219,846.356995 377.648743,856.236267 
	C375.578827,856.930969 373.700378,858.648132 372.126282,860.271301 
	C369.131470,863.359314 366.421204,866.723267 363.354767,870.246155 
	C362.042572,868.375549 360.937134,866.799744 359.246399,864.389465 
	C349.800415,870.470032 340.537445,876.556763 331.124176,882.401489 
	C328.889282,883.789185 326.151031,884.366211 323.644318,885.316162 
	C323.210358,884.556458 322.776428,883.796814 322.342499,883.037170 
	C328.395874,878.354065 334.449249,873.671021 340.806824,868.792847 
z"/>
<path fill="#FFFFFF" opacity="0.000000" stroke="none" 
	d="
M423.022919,884.811462 
	C420.187897,884.811340 417.810822,884.811340 415.433777,884.811340 
	C415.421021,884.411499 415.408264,884.011658 415.395508,883.611816 
	C433.422821,878.242371 451.450165,872.872864 469.743408,867.424194 
	C469.210083,864.952454 468.813141,863.112854 468.360229,861.013794 
	C471.468781,861.013794 474.319763,860.706482 477.082458,861.070007 
	C486.349030,862.289185 494.712555,859.739319 503.114624,856.091980 
	C528.679443,844.994446 552.479614,831.335876 571.775940,810.790039 
	C572.456360,810.065613 573.122437,809.327576 573.943054,808.434998 
	C572.614380,806.939514 571.340637,805.505798 570.103394,804.113220 
	C570.499207,803.596008 570.642822,803.195374 570.884949,803.122559 
	C586.024658,798.575317 593.005981,785.897522 600.308899,773.569153 
	C603.168091,768.742432 605.859497,763.816284 608.691345,758.822632 
	C612.147339,760.593201 612.604736,762.699463 610.726440,765.761230 
	C607.335754,771.288086 604.175293,776.955933 600.900635,782.554382 
	C594.566528,793.383423 588.219788,804.205139 581.816345,815.135620 
	C581.208374,814.661621 579.832703,813.588989 578.929016,812.884399 
	C568.745911,821.131287 559.119873,829.588745 548.813721,837.114746 
	C534.241516,847.755981 518.071106,855.636719 501.332672,862.323547 
	C496.394714,864.296204 491.154541,865.708557 486.555786,868.277832 
	C482.117676,870.757385 478.328522,874.398560 473.891296,877.808350 
	C473.130463,876.194214 472.468445,874.789734 471.727020,873.216797 
	C459.525269,876.585205 447.441101,880.055542 435.273041,883.201172 
	C431.458466,884.187317 427.417999,884.299438 423.022919,884.811462 
z"/>
<path fill="#FFFFFF" opacity="0.000000" stroke="none" 
	d="
M546.253357,701.642700 
	C548.279236,701.264282 550.159180,701.189819 552.448486,701.155884 
	C545.182190,711.563171 537.506531,721.929810 529.671692,732.511475 
	C528.848022,731.630798 527.750366,730.457214 526.479675,729.098572 
	C505.319977,746.296143 481.810303,759.273254 456.773376,769.611328 
	C452.019867,771.574036 447.096252,773.282715 442.669434,775.834351 
	C438.266174,778.372437 434.389709,781.824341 429.991058,785.091919 
	C429.176208,783.261414 428.534058,781.818848 427.991791,780.600708 
	C412.750488,784.245605 397.793488,787.822510 381.975983,791.605225 
	C384.008728,786.881714 386.518372,784.962402 390.476624,783.985474 
	C402.354218,781.054077 414.119141,777.666321 426.124451,774.403259 
	C425.679382,771.928162 425.366302,770.187073 425.021301,768.268494 
	C428.203033,768.268494 431.260773,767.784790 434.101532,768.364563 
	C440.989929,769.770203 447.133301,768.063477 453.425751,765.429932 
	C472.206390,757.569702 490.402679,748.624878 507.115723,736.947266 
	C512.493408,733.189758 517.265808,728.565857 522.471619,724.207336 
	C521.344910,722.446411 520.379517,720.937561 518.890137,718.609741 
	C530.325806,716.603088 540.014099,712.019287 546.253357,701.642700 
z"/>
<path fill="#FFFFFF" opacity="0.000000" stroke="none" 
	d="
M567.075439,880.124573 
	C584.121155,871.467773 601.116211,863.420959 615.218262,850.161499 
	C614.035706,848.555176 612.980530,847.121826 611.512268,845.127319 
	C614.825928,843.883606 617.777039,842.513367 620.872131,841.673767 
	C625.932190,840.301086 629.709900,837.369385 632.873108,833.300354 
	C638.978271,825.446960 645.224182,817.703003 651.456909,809.856750 
	C654.470764,811.520813 655.068726,813.474915 652.865295,816.231506 
	C650.062805,819.737488 647.359802,823.327332 644.719299,826.957642 
	C637.328857,837.118652 629.992432,847.319031 622.470764,857.730957 
	C621.919861,857.254822 620.708069,856.207520 619.405945,855.082153 
	C600.795166,867.220825 583.372620,881.870361 560.578247,885.719421 
	C560.274841,885.166382 559.971375,884.613342 559.667908,884.060303 
	C562.024597,882.799561 564.381287,881.538818 567.075439,880.124573 
z"/>
<path fill="#FFFFFF" opacity="0.000000" stroke="none" 
	d="
M479.055115,701.555603 
	C481.890198,701.224915 484.506683,701.154419 487.571655,701.109985 
	C484.852509,703.491150 481.815430,706.051453 478.494385,708.165710 
	C464.866516,716.841736 450.405884,723.706604 434.777985,727.929443 
	C434.477478,727.524780 434.176941,727.120117 433.876434,726.715515 
	C436.576813,724.547424 439.012085,721.870850 442.024109,720.300598 
	C454.198303,713.953674 466.550171,707.947632 479.055115,701.555603 
z"/>
<path fill="#FFFFFF" opacity="0.000000" stroke="none" 
	d="
M646.036987,884.814209 
	C645.921997,884.045349 645.902161,883.030212 646.399475,882.545410 
	C653.601807,875.523071 661.488586,869.088501 667.921021,861.429321 
	C672.508911,855.966492 675.164490,848.880859 678.734131,842.425781 
	C682.123413,844.208679 682.046814,846.740784 680.437683,850.328308 
	C675.033813,862.375854 667.280701,872.526306 657.215332,881.022217 
	C654.015259,883.723328 650.669800,885.496704 646.036987,884.814209 
z"/>
<path fill="#000000" opacity="1.000000" stroke="none" 
	d="
M533.000000,198.882797 
	C562.785583,198.882706 592.071228,198.882706 621.675293,198.882706 
	C621.675293,216.012177 621.675293,232.603500 621.675293,249.919342 
	C565.680908,249.919342 509.662689,249.919342 453.365112,249.919342 
	C453.365112,273.877930 453.365112,297.114655 453.365112,320.859192 
	C505.480377,320.859192 557.390076,320.859192 609.692383,320.859192 
	C609.692383,338.065552 609.692383,354.768585 609.692383,371.979065 
	C557.644348,371.979065 505.733276,371.979065 453.452850,371.979065 
	C453.452850,401.042725 453.452850,429.604767 453.452850,458.816986 
	C474.829803,458.816986 496.214111,458.816986 517.922913,458.816986 
	C517.922913,476.045563 517.922913,492.629608 517.922913,509.622864 
	C476.160126,509.622864 434.425903,509.622864 392.229706,509.622864 
	C392.229706,406.341980 392.229706,302.987701 392.229706,198.882889 
	C438.983124,198.882889 485.741547,198.882889 533.000000,198.882797 
z"/>
<path fill="#1C6CC5" opacity="1.000000" stroke="none" 
	d="
M666.884277,579.487427 
	C666.489990,579.956055 666.253540,580.161560 665.956665,580.635315 
	C665.538696,580.970032 665.286316,581.165161 664.968323,581.638672 
	C664.543152,581.973145 664.289795,582.167236 663.970947,582.640991 
	C663.545105,582.974548 663.291260,583.167908 662.971436,583.640808 
	C662.545837,583.972717 662.289429,584.162598 661.960083,584.627441 
	C661.538147,584.957642 661.284485,585.142639 660.947327,585.588013 
	C652.804688,591.791870 644.429993,597.219849 634.588623,599.657715 
	C605.712646,606.810730 577.658203,605.844910 551.200012,590.586060 
	C549.336792,589.511536 547.610046,588.200500 545.494568,586.897156 
	C536.927124,578.954956 528.409790,571.036743 525.585266,559.613953 
	C523.009521,549.197266 520.492310,538.442505 520.348816,527.804382 
	C519.753296,483.650482 520.065002,439.484375 520.054382,395.322754 
	C520.054138,394.503296 520.184509,393.683838 520.289795,392.440247 
	C533.922852,392.440247 547.483643,392.440247 561.914795,392.440247 
	C561.914795,394.238037 561.914001,396.152954 561.914856,398.067841 
	C561.934875,440.896271 561.787415,483.726074 562.129639,526.551941 
	C562.191284,534.260620 563.553711,542.145569 565.561157,549.614380 
	C570.185730,566.819946 583.172974,576.386292 601.706726,576.838379 
	C606.650635,576.958984 611.697815,576.498657 616.561646,575.583191 
	C633.385620,572.416687 640.910706,560.481689 643.833679,545.004456 
	C645.212524,537.703613 645.864258,530.163757 645.898926,522.727783 
	C646.091431,481.399963 645.993408,440.070770 645.994751,398.742065 
	C645.994812,396.764709 645.994751,394.787354 645.994751,392.409302 
	C657.935547,392.409302 669.509888,392.409302 681.707397,392.409302 
	C681.791870,393.841614 681.966797,395.427185 681.967041,397.012756 
	C681.973633,439.674652 682.150818,482.338013 681.813110,524.997314 
	C681.734741,534.903076 680.273560,544.854309 678.748352,554.675903 
	C677.317932,563.887085 672.677795,571.846985 666.884277,579.487427 
z"/>
<path fill="#00000" opacity="1.000000" stroke="none" 
	d="
M619.937317,458.905151 
	C622.721436,458.905060 625.016052,458.905060 627.648682,458.905060 
	C627.648682,475.973846 627.648682,492.553070 627.648682,509.584167 
	C606.658264,509.584167 585.621765,509.584167 564.115051,509.584167 
	C564.115051,492.981049 564.115051,476.300781 564.115051,458.905212 
	C582.586365,458.905212 601.017090,458.905212 619.937317,458.905151 
z"/>
<path fill="#000000" opacity="1.000000" stroke="none" 
	d="
M329.986115,249.979782 
	C276.003296,250.014557 222.020493,250.049393 168.037674,250.083984 
	C166.057968,250.085251 164.078247,250.084122 161.693451,250.084122 
	C161.693451,273.681610 161.693451,296.906250 161.693451,320.737244 
	C213.605118,320.737244 265.476318,320.737244 317.818054,320.737244 
	C317.818054,338.016296 317.818054,354.699463 317.818054,371.940918 
	C265.882294,371.940918 213.982437,371.940918 161.685699,371.940918 
	C161.685699,401.045197 161.685699,429.597595 161.685699,458.777527 
	C219.694382,458.777527 277.552887,458.777527 335.743896,458.777527 
	C335.743896,475.984894 335.743896,492.571411 335.743896,509.782898 
	C334.073669,509.860474 332.319855,510.012878 330.566040,510.013153 
	C255.754837,510.025055 180.943558,509.981506 106.132607,510.122528 
	C101.411942,510.131439 99.920120,508.998962 99.927124,504.074768 
	C100.069138,404.271149 100.033546,304.467285 100.033539,204.663467 
	C100.033539,203.018845 100.033539,201.374207 100.033539,198.918335 
	C176.627991,198.918335 252.848740,198.918335 329.534607,199.433365 
	C329.995209,216.625519 329.990662,233.302658 329.986115,249.979782 
z"/>
<path fill="#324D71" opacity="1.000000" stroke="none" 
	d="
M330.299438,249.702423 
	C329.990662,233.302658 329.995209,216.625519 330.001526,199.481262 
	C330.322266,199.567047 330.921753,200.121124 330.919525,200.672760 
	C330.853973,216.923676 330.728607,233.174347 330.299438,249.702423 
z"/>
<path fill="#FFFFFF" opacity="0.000000" stroke="none" 
	d="
M507.091675,686.739136 
	C504.608795,687.224854 502.282745,687.409729 499.549286,687.606934 
	C500.684265,685.962708 502.213989,684.294189 503.771118,682.651611 
	C511.168884,674.847778 518.574158,667.051147 526.100586,659.121338 
	C528.747498,660.546997 529.133972,662.709106 526.818848,665.236572 
	C520.322510,672.328674 513.775513,679.374390 507.091675,686.739136 
z"/>
<path fill="#1C6CC5" opacity="1.000000" stroke="none" 
	d="
M898.504028,412.097870 
	C898.965271,412.493866 899.163330,412.736145 899.618347,413.055878 
	C899.959045,413.474304 900.157166,413.722961 900.618408,414.050171 
	C900.960693,414.471924 901.158203,414.721069 901.619507,415.048615 
	C901.958496,415.466949 902.151367,415.714355 902.601929,416.043030 
	C906.979248,421.937836 911.515564,427.483246 915.264954,433.517609 
	C924.970947,449.138763 929.136230,466.523285 929.979248,484.688171 
	C930.751648,501.331543 930.272156,517.890137 925.571350,534.136353 
	C917.924377,560.564575 901.641663,579.743591 877.641541,592.696106 
	C876.764282,593.169556 875.882996,593.635986 875.015686,594.127075 
	C874.885010,594.201050 874.820862,594.392212 874.347046,595.075806 
	C900.789978,604.438354 927.843994,610.322388 956.117188,613.994202 
	C947.547058,622.701050 939.609314,630.924744 931.402649,638.870667 
	C930.526978,639.718445 927.979248,639.308594 926.376831,638.866577 
	C897.755737,630.971680 869.854797,621.206543 844.391602,605.603821 
	C839.982300,602.902100 835.647034,602.898621 831.037170,603.203613 
	C804.765320,604.941833 780.550720,599.371826 759.275269,583.209656 
	C759.145813,583.111328 758.974976,583.067444 758.501465,582.890503 
	C750.844421,574.037537 742.779114,565.793152 736.352112,556.424927 
	C727.561890,543.611938 724.009827,528.575989 722.180969,513.323914 
	C719.664246,492.335052 721.128967,471.579010 728.036072,451.454407 
	C731.780396,440.545044 737.058960,430.407898 744.702759,421.628387 
	C745.340271,420.896210 745.723450,419.942505 746.379639,418.802063 
	C749.291504,415.926147 752.048340,413.339905 754.989868,410.483673 
	C765.092285,402.894196 775.325562,396.193024 787.338318,392.672577 
	C817.740356,383.763031 847.726196,384.263123 876.719055,397.675781 
	C884.431213,401.243530 891.059448,407.154480 898.504028,412.097870 
M865.981934,431.189880 
	C864.387817,429.722473 862.793640,428.255096 860.817200,426.233948 
	C847.662109,414.228333 831.802856,411.884186 815.136169,414.621429 
	C793.857849,418.116089 781.092285,432.349792 773.169678,451.273254 
	C765.855225,468.744202 764.212341,487.099731 765.768921,505.964447 
	C766.975525,520.588318 770.186096,534.434692 777.182190,547.392029 
	C790.467529,571.997559 816.828308,582.662292 843.317749,574.091003 
	C861.180481,568.311035 872.167847,555.426270 878.820007,538.694702 
	C888.264587,514.939636 888.216125,490.324890 883.203918,465.666534 
	C880.626404,452.986023 875.351929,441.343719 865.981934,431.189880 
z"/>
<path fill="#5D636A" opacity="1.000000" stroke="none" 
	d="
M866.194946,431.812439 
	C875.351929,441.343719 880.626404,452.986023 883.203918,465.666534 
	C888.216125,490.324890 888.264587,514.939636 878.820007,538.694702 
	C872.167847,555.426270 861.180481,568.311035 843.317749,574.091003 
	C816.828308,582.662292 790.467529,571.997559 777.182190,547.392029 
	C770.186096,534.434692 766.975525,520.588318 765.768921,505.964447 
	C764.212341,487.099731 765.855225,468.744202 773.169678,451.273254 
	C781.092285,432.349792 793.857849,418.116089 815.136169,414.621429 
	C831.802856,411.884186 847.662109,414.228333 860.777954,426.749023 
	C860.584351,427.422241 860.430054,427.580383 859.999023,427.550049 
	C855.029602,424.560791 850.631042,420.969513 845.593689,419.094818 
	C822.812988,410.616821 791.509155,414.431732 776.335144,449.082275 
	C762.889526,479.785828 763.386963,511.373871 776.764709,542.175537 
	C783.221985,557.043274 794.052979,568.260742 810.246033,572.929138 
	C835.538513,580.220886 859.925049,569.850525 873.069580,546.412109 
	C882.417419,529.743591 884.660645,511.527222 884.473389,492.847168 
	C884.253052,470.868408 879.714600,450.212006 865.491333,432.520935 
	C865.881714,432.126770 866.038330,431.969604 866.194946,431.812439 
z"/>
<path fill="#5D636A" opacity="1.000000" stroke="none" 
	d="
M860.969116,427.025940 
	C862.793640,428.255096 864.387817,429.722473 866.088440,431.501160 
	C866.038330,431.969604 865.881714,432.126770 865.251099,432.307800 
	C863.276611,430.800568 861.776123,429.269562 860.275696,427.738525 
	C860.430054,427.580383 860.584351,427.422241 860.969116,427.025940 
z"/>
<path fill="#FFFFFF" opacity="0.000000" stroke="none" 
	d="
M859.999023,427.550079 
	C861.776123,429.269562 863.276611,430.800568 865.017334,432.544739 
	C879.714600,450.212006 884.253052,470.868408 884.473389,492.847168 
	C884.660645,511.527222 882.417419,529.743591 873.069580,546.412109 
	C859.925049,569.850525 835.538513,580.220886 810.246033,572.929138 
	C794.052979,568.260742 783.221985,557.043274 776.764709,542.175537 
	C763.386963,511.373871 762.889526,479.785828 776.335144,449.082275 
	C791.509155,414.431732 822.812988,410.616821 845.593689,419.094818 
	C850.631042,420.969513 855.029602,424.560791 859.999023,427.550079 
z"/>
<line x1="1124" y1="0" x2="1124" y2="1024" style="stroke: black; stroke-width: 10;"/>
</svg>